<svg
  width="307"
  height="307"
  viewport="0 0 307 307"
  xmlns="http://www.w3.org/2000/svg"
><path
    d="M257.106 255.893L240.453 35.987c35.736 26.675 58.916 69.283 58.916 117.205 0 39.993-16.15 76.282-42.263 102.7zM20.421 214.308l74.743-62.184 62.546 147.169c-1.501.046-3.006.077-4.518.077-58.795 0-109.587-34.897-132.771-85.062zM47.153 52.68L15.362 201.883c-5.399-15.24-8.348-31.626-8.348-48.691 0-38.9 15.276-74.295 40.139-100.512zm184.183-22.972L125.65 117.637 57.221 43.024c25.697-22.414 59.275-36.01 95.971-36.01 28.72 0 55.527 8.33 78.144 22.694zm-35.725 164.21l38.913-143.341 15.334 202.49-54.247-59.148zm-2.173 8.008l56.066 61.13c-22.449 19.705-50.962 32.652-82.338 35.642l26.272-96.772zm-63.041-79.114l99.788-83.021-40.182 148.014-59.606-64.993zm-5.398 4.49l62.831 68.509-25.913 95.45-61.123-143.821 24.205-20.137zM63.943 60.732l56.309 61.397-22.322 18.57-33.987-79.967zm-10.094-5.82l38.45 90.472-70.165 58.375L53.849 54.912zM153.192 0C68.722 0 0 68.722 0 153.192c0 84.47 68.722 153.19 153.192 153.19 84.471 0 153.191-68.72 153.191-153.19S237.663 0 153.192 0z"
    fill="#FFF"
    fill-rule="evenodd"
  /></svg>
