<?xml version="1.0" standalone="no"?>
<!DOCTYPE svg PUBLIC "-//W3C//DTD SVG 20010904//EN"
 "http://www.w3.org/TR/2001/REC-SVG-20010904/DTD/svg10.dtd">
<svg version="1.0" xmlns="http://www.w3.org/2000/svg"
 width="512.000000pt" height="512.000000pt" viewBox="0 0 512.000000 512.000000"
 preserveAspectRatio="xMidYMid meet">
<metadata>
Created by potrace 1.11, written by Peter Selinger 2001-2013
</metadata>
<g transform="translate(0.000000,512.000000) scale(0.100000,-0.100000)"
fill="#000000" stroke="none">
<path d="M0 4616 c0 -326 4 -507 10 -511 6 -3 10 0 10 7 1 8 6 6 15 -6 8 -11
15 -18 16 -15 0 2 2 12 4 22 2 10 -1 15 -8 11 -7 -3 -4 1 5 8 17 15 9 46 -9
35 -5 -3 -10 0 -10 8 0 8 5 11 10 8 7 -4 8 1 3 13 -4 10 -10 39 -12 64 -3 24
-7 46 -9 48 -4 5 32 62 46 72 3 3 11 15 18 28 7 12 16 20 22 17 5 -4 8 -3 7 2
-1 4 6 22 16 40 17 27 21 29 34 16 12 -11 12 -17 2 -26 -10 -9 -11 -9 -6 0 3
6 1 15 -6 19 -7 4 -10 4 -6 -1 4 -4 2 -15 -5 -23 -9 -13 -9 -14 1 -8 7 4 12 2
12 -4 0 -6 5 -8 13 -4 9 6 9 5 0 -8 -7 -8 -9 -19 -5 -23 4 -5 1 -5 -6 -1 -7 4
-9 12 -6 18 4 6 -2 6 -15 -1 -11 -7 -21 -14 -21 -17 0 -3 6 -2 12 2 10 6 10 5
1 -8 -7 -8 -10 -18 -6 -21 3 -4 1 -7 -7 -7 -10 0 -10 -3 -1 -14 17 -20 -5 -32
-27 -15 -16 13 -16 12 0 -6 16 -20 19 -48 5 -61 -3 -4 -4 3 -2 15 2 12 0 19
-5 16 -9 -6 -6 -37 5 -55 4 -6 11 -7 17 -4 7 4 8 2 4 -5 -4 -6 -11 -9 -16 -6
-4 3 -10 -4 -13 -15 -6 -24 -5 -36 5 -33 3 1 5 -9 4 -22 -2 -15 6 -32 19 -45
16 -15 21 -28 17 -47 -3 -18 -1 -24 7 -19 6 4 -2 -13 -19 -37 -17 -26 -41 -48
-55 -51 -14 -4 -23 -11 -20 -16 3 -5 13 -6 22 -3 15 6 16 5 3 -9 -8 -9 -18
-14 -22 -12 -3 2 -4 -5 -1 -16 6 -24 -15 -53 -34 -46 -11 4 -13 -206 -10
-1247 l2 -1252 69 -125 c104 -188 217 -352 332 -486 30 -34 50 -65 46 -68 -4
-4 -2 -6 4 -4 11 3 94 -82 94 -96 0 -3 -8 -2 -18 3 -40 22 -109 51 -120 51 -7
0 -11 5 -9 12 1 6 -9 17 -23 24 -13 7 -30 20 -36 29 -7 9 -18 17 -26 19 -30 4
-38 16 -27 39 7 12 8 19 4 15 -4 -4 -17 -3 -28 3 -13 7 -17 7 -13 1 3 -6 2
-13 -3 -17 -6 -3 -8 4 -6 16 4 22 -27 73 -39 62 -8 -9 -47 28 -40 38 3 5 0 9
-7 9 -8 0 -7 5 2 17 8 9 9 14 3 10 -6 -4 -19 2 -29 13 -14 15 -15 20 -4 20 10
1 8 5 -6 16 -16 12 -17 17 -7 23 11 7 10 9 -3 14 -9 4 -13 3 -10 -2 3 -5 1
-12 -4 -16 -6 -3 -8 5 -5 19 2 14 0 28 -6 31 -6 4 -7 12 -3 18 4 7 -2 5 -12
-3 -10 -8 -16 -10 -12 -3 4 6 3 15 -3 18 -6 4 -8 15 -5 26 5 14 2 19 -14 19
-11 0 -23 5 -27 12 -4 7 -3 8 4 4 7 -4 12 -2 12 4 0 6 5 8 12 4 7 -4 8 -3 4 4
-4 7 -15 12 -24 12 -15 1 -14 3 3 17 15 12 16 14 3 10 -12 -4 -18 1 -21 16 -2
12 -5 -251 -6 -585 l-1 -608 452 0 452 0 -95 65 c-107 75 -146 105 -204 157
-135 122 -131 117 -115 129 12 8 11 9 -6 4 -13 -3 -26 1 -35 11 -11 14 -10 16
11 13 14 -2 26 1 28 6 1 6 -7 11 -18 11 -11 1 -24 4 -27 8 -11 10 -12 37 -2
30 5 -3 7 -9 5 -13 -3 -3 4 -7 14 -7 10 0 18 5 17 11 -1 5 4 9 11 7 8 -1 11 2
7 9 -5 8 -10 8 -18 0 -13 -13 -27 -14 -27 -2 0 8 27 20 55 25 6 1 9 8 7 15 -1
7 2 9 8 6 6 -4 21 1 32 12 12 10 18 12 13 4 -5 -9 0 -8 18 4 19 12 27 13 33 4
5 -8 3 -10 -7 -4 -8 5 -11 4 -6 0 4 -5 17 -10 29 -12 12 -2 32 -12 43 -23 12
-11 25 -20 29 -20 5 0 25 -17 45 -38 21 -21 45 -41 54 -45 9 -3 17 -11 17 -17
0 -6 -4 -9 -9 -5 -5 3 -13 0 -17 -6 -4 -7 -3 -9 3 -6 12 7 59 -40 50 -49 -4
-4 -15 4 -26 17 -11 13 -21 22 -21 19 -7 -29 -7 -39 -2 -39 20 3 32 -2 27 -11
-4 -6 -12 -7 -18 -3 -7 4 -6 0 2 -10 13 -16 36 -14 26 3 -3 4 1 10 8 13 18 7
27 8 27 2 0 -3 -3 -5 -7 -4 -3 0 -11 -7 -16 -16 -11 -20 6 -35 33 -30 9 2 17
-3 17 -10 0 -7 -8 -12 -18 -10 -14 3 -18 -2 -16 -18 1 -15 -3 -21 -13 -19 -8
2 -12 0 -7 -4 10 -11 67 -12 61 -2 -3 5 -9 6 -13 4 -4 -3 -8 1 -8 9 0 11 3 12
14 3 18 -15 39 -53 25 -44 -6 3 -14 1 -18 -5 -4 -8 -9 -7 -15 2 -4 7 -10 11
-14 8 -3 -3 4 -14 16 -25 15 -14 20 -15 17 -4 -2 8 3 14 11 12 7 -1 19 2 26 8
9 8 15 8 20 0 3 -5 4 -11 1 -11 -3 -1 -10 -3 -16 -4 -5 -1 -14 -3 -19 -4 -18
-2 -7 -37 10 -37 12 0 15 4 9 11 -6 8 -5 12 4 12 9 0 13 -8 10 -23 -2 -13 0
-26 6 -29 6 -4 8 -10 5 -14 -2 -5 4 -8 15 -7 22 1 29 18 9 25 -8 2 -9 -1 -3
-10 7 -12 5 -12 -9 0 -21 17 -21 18 1 18 28 0 43 -17 32 -37 -9 -17 0 -18 165
-18 96 0 177 4 181 9 3 5 13 5 24 -1 12 -7 653 -10 1874 -10 l1856 0 0 430 c0
452 -1 462 -42 389 -10 -17 -22 -27 -28 -24 -6 4 -10 3 -9 -2 4 -23 -3 -31
-24 -26 -21 5 -21 5 -4 -9 18 -13 18 -15 1 -29 -11 -8 -15 -9 -10 -1 7 11 -5
17 -28 13 -5 -1 -5 6 -2 16 6 15 3 14 -16 -3 -13 -12 -29 -20 -36 -18 -7 1 -8
0 -2 -3 7 -3 5 -13 -7 -27 -18 -21 -18 -21 3 -3 11 9 24 14 29 10 4 -5 5 -2 1
4 -4 7 -4 13 1 14 4 0 15 2 24 4 9 1 16 -3 16 -11 0 -10 -4 -11 -14 -3 -10 9
-13 7 -13 -6 0 -11 -5 -15 -14 -12 -8 3 -20 -1 -26 -8 -7 -8 -17 -12 -22 -9
-6 4 -14 1 -18 -6 -5 -8 -9 -7 -13 5 -4 9 -3 13 2 10 5 -3 12 -1 15 4 4 5 -2
8 -11 7 -9 -2 -19 -8 -21 -14 -2 -7 -8 -10 -12 -7 -5 3 -12 0 -16 -6 -4 -8 -3
-9 4 -5 7 4 12 2 12 -4 0 -6 4 -9 8 -6 5 3 9 -1 9 -8 0 -15 -14 -15 -34 -3
-12 7 -17 -2 -15 -24 1 -3 -14 -5 -33 -4 -39 3 -67 -28 -60 -64 2 -12 0 -19
-4 -16 -5 2 -8 21 -6 40 1 28 -1 33 -11 24 -8 -6 -12 -15 -9 -19 3 -5 1 -11
-5 -15 -6 -4 -8 -10 -5 -14 6 -11 -32 -44 -43 -37 -12 7 -54 -38 -45 -49 5 -4
2 -5 -5 0 -10 5 -11 10 -3 18 13 13 15 30 2 22 -5 -3 -13 0 -17 6 -4 7 -3 9 3
6 15 -10 52 21 50 42 -1 11 -5 17 -9 15 -5 -3 -6 -9 -3 -14 3 -4 -2 -13 -10
-20 -8 -7 -15 -9 -15 -5 0 4 -7 2 -15 -5 -8 -7 -12 -16 -9 -21 3 -5 0 -9 -6
-9 -7 0 -10 -7 -7 -15 9 -21 -10 -28 -22 -8 -7 13 -10 14 -11 4 0 -8 -7 -23
-16 -32 -14 -15 -20 -16 -38 -7 -21 12 -21 12 4 18 14 4 24 13 24 22 -1 8 6
15 15 14 8 0 16 4 16 9 0 6 13 24 29 40 16 17 23 21 15 10 -13 -18 -13 -19 4
-6 9 7 17 18 17 23 0 5 21 31 46 58 88 93 116 126 196 232 44 59 85 106 90
105 6 -1 13 5 15 13 4 13 3 13 -6 0 -6 -8 -11 -10 -11 -5 0 13 20 35 32 35 4
0 5 -6 2 -14 -3 -8 -1 -17 5 -21 6 -3 9 0 5 8 -3 8 -1 18 5 21 6 4 7 14 4 23
-5 12 -3 14 8 7 20 -12 40 -14 33 -3 -3 5 -10 7 -15 4 -17 -11 -9 0 19 27 22
21 28 23 27 10 0 -10 -5 -24 -9 -32 -7 -12 -5 -12 8 1 9 9 18 25 19 37 0 12 3
19 6 17 2 -3 11 1 19 8 11 8 14 9 9 0 -5 -8 -1 -11 12 -10 20 1 20 12 21 636
0 349 -2 633 -4 630 -3 -3 -7 -25 -10 -50 -10 -102 -37 -260 -59 -344 -20 -76
-27 -89 -42 -87 -17 3 -17 2 -4 -14 13 -16 12 -17 -13 -10 -18 4 -28 2 -28 -5
0 -6 -7 -9 -14 -6 -11 4 -13 1 -9 -10 5 -11 3 -14 -6 -8 -7 4 -5 -5 5 -21 16
-24 16 -27 2 -16 -13 10 -18 10 -24 1 -4 -7 -2 -15 4 -17 15 -5 16 -22 1 -22
-6 0 -32 -14 -57 -31 -26 -17 -58 -32 -72 -32 l-25 0 28 -11 c31 -11 36 -26 8
-26 -11 0 -23 -4 -26 -10 -3 -5 -15 -10 -25 -10 -10 0 -22 -5 -26 -12 -5 -8
-2 -9 9 -5 23 9 22 -10 -1 -22 -15 -8 -18 -5 -20 15 -1 16 6 28 25 37 16 9 22
17 14 21 -6 4 -11 3 -11 -2 0 -6 -8 -9 -17 -8 -10 0 -17 -4 -16 -11 2 -7 -6
-17 -17 -23 -11 -6 -20 -16 -20 -23 0 -7 -12 -20 -25 -30 -20 -14 -24 -15 -19
-2 3 8 9 15 13 15 4 0 8 6 9 13 0 6 22 64 48 127 43 107 59 155 101 300 9 30
23 63 31 72 8 10 12 24 9 32 -6 15 14 32 38 35 6 1 10 8 10 17 0 17 25 35 38
27 5 -3 1 7 -9 21 -13 20 -19 24 -25 14 -7 -11 -9 -11 -9 0 0 7 14 26 31 41
19 18 27 31 20 35 -6 4 -11 13 -11 19 0 7 8 3 16 -8 15 -20 15 -20 30 -1 8 11
14 15 14 9 0 -6 7 -13 15 -17 19 -7 15 15 -5 31 -13 10 -11 11 8 6 17 -4 22
-1 22 13 0 16 -2 17 -10 4 -8 -11 -9 -8 -6 14 3 16 11 33 18 38 10 6 10 8 1 8
-7 0 -10 7 -7 15 5 12 10 13 20 4 10 -8 14 -8 14 0 0 6 0 14 0 19 0 4 -6 7
-12 7 -7 0 -14 8 -16 19 -3 11 0 16 7 11 6 -3 8 -12 4 -18 -4 -7 1 -6 11 2 9
8 13 17 9 20 -12 9 -14 31 -2 31 5 0 7 6 3 13 -5 8 -2 8 9 -2 12 -9 17 -10 17
-2 0 6 -6 14 -14 17 -21 8 -16 40 6 41 10 1 18 -3 18 -8 0 -6 -4 -7 -10 -4
-16 10 -12 -11 5 -25 8 -7 15 -11 16 -9 6 23 6 78 0 74 -5 -2 -16 4 -26 15
-10 11 -22 17 -28 13 -6 -4 -8 0 -4 10 3 9 1 18 -6 20 -9 3 -8 8 2 20 11 14
11 20 1 32 -19 23 -5 48 19 35 16 -8 20 -6 23 10 2 15 7 17 18 10 12 -8 13
-13 2 -30 -10 -17 -10 -20 3 -20 13 0 15 64 15 530 0 437 -3 537 -14 565 -13
29 -13 35 0 46 12 10 14 105 14 615 l0 604 -470 0 c-442 -1 -470 -2 -470 -18
0 -10 -6 -24 -12 -32 -7 -8 -1 -4 14 9 24 20 56 22 44 2 -3 -4 4 -17 14 -29
32 -34 23 -58 -10 -29 -8 6 -11 8 -7 3 4 -5 2 -15 -5 -23 -8 -10 -8 -12 4 -8
9 4 15 0 15 -9 0 -8 -4 -13 -9 -10 -4 3 -8 0 -8 -7 0 -8 -5 -7 -17 2 -17 13
-17 13 -3 -6 8 -11 15 -21 16 -23 1 -1 29 13 63 32 34 20 59 30 55 24 -5 -7
-3 -8 7 -3 23 15 48 13 42 -2 -3 -8 0 -13 8 -11 8 2 13 -2 12 -8 -1 -6 12 -10
30 -9 25 0 33 -4 33 -17 0 -12 -4 -14 -12 -7 -8 7 -14 6 -19 -1 -3 -5 -5 -10
-3 -11 2 0 19 -3 38 -6 32 -4 107 -60 95 -71 -2 -2 10 -16 27 -31 18 -14 33
-24 33 -21 1 3 9 -1 18 -9 9 -7 14 -17 11 -22 -8 -14 -25 0 -18 14 4 7 3 8 -1
4 -12 -10 -15 -38 -4 -31 5 3 10 0 10 -5 1 -6 3 -15 4 -21 1 -5 3 -13 4 -16 0
-4 11 1 24 9 15 10 29 12 38 6 8 -5 10 -9 5 -9 -5 0 -2 -8 5 -17 13 -16 12
-17 -3 -5 -10 8 -19 9 -22 3 -8 -13 4 -19 31 -16 18 1 20 -1 11 -12 -9 -11 -7
-12 7 -7 11 4 16 3 12 -2 -3 -5 4 -21 15 -34 11 -14 16 -19 12 -11 -5 10 -3
12 5 7 9 -6 9 -11 -1 -24 -11 -13 -11 -15 4 -10 10 4 19 1 22 -8 3 -8 11 -13
17 -12 8 2 13 -9 13 -27 1 -29 10 -36 24 -19 4 4 0 4 -8 -1 -12 -6 -13 -5 -3
5 17 18 27 6 15 -17 -8 -14 -4 -24 19 -46 19 -18 30 -23 35 -15 5 7 3 8 -6 3
-9 -5 -11 -4 -6 4 13 20 24 3 21 -34 -1 -19 2 -32 7 -29 4 3 6 10 3 15 -9 14
33 5 48 -11 6 -7 7 -10 2 -7 -6 3 -17 2 -23 -2 -10 -6 -9 -11 4 -22 16 -12 17
-12 9 1 -4 8 -4 12 0 7 12 -10 15 -38 4 -31 -5 3 -9 1 -9 -5 0 -5 4 -12 10
-16 5 -3 1 -20 -10 -39 -10 -19 -17 -36 -14 -38 2 -3 -10 -17 -26 -33 -16 -16
-31 -27 -34 -24 -2 2 -27 37 -56 78 -29 41 -61 84 -72 95 -11 12 -32 37 -46
56 -57 75 -372 380 -393 380 -4 0 -12 6 -16 13 -4 8 -22 24 -40 37 -18 13 -29
28 -26 34 3 6 3 8 -2 4 -12 -11 -65 21 -65 40 0 11 -3 13 -8 5 -5 -8 -15 -4
-35 13 -15 13 -27 27 -26 31 0 4 -5 9 -12 12 -7 2 -9 -2 -5 -10 4 -8 -2 -3
-14 11 -13 14 -28 24 -35 22 -6 -1 -20 8 -31 20 -10 12 -13 18 -7 14 9 -5 11
-2 7 9 -5 12 -10 13 -20 4 -15 -12 -57 -2 -48 12 3 5 10 6 16 3 7 -4 8 -2 4 5
-5 7 -13 8 -24 2 -11 -6 -30 -2 -64 15 l-48 24 -485 0 c-451 -1 -485 -2 -485
-18 0 -15 2 -15 10 -2 9 13 12 13 21 -3 6 -9 14 -15 19 -12 5 3 7 -6 4 -21 -3
-15 -1 -23 5 -20 5 4 12 2 15 -2 3 -5 -10 -8 -28 -7 -40 3 -66 -9 -41 -19 9
-3 13 -11 9 -17 -4 -8 -3 -9 5 -5 6 4 9 11 6 16 -3 5 -1 11 4 14 13 9 22 -37
9 -49 -8 -7 -9 -6 -3 5 5 8 4 11 0 7 -15 -13 -14 -36 1 -30 8 3 15 -1 15 -11
1 -9 2 -22 3 -28 2 -18 -32 -41 -47 -32 -7 5 -6 0 3 -11 8 -10 10 -16 4 -12
-12 7 -108 15 -248 22 -254 12 -621 -47 -859 -138 -158 -61 -323 -142 -430
-213 -68 -44 -89 -59 -143 -97 l-50 -36 0 54 c1 30 5 55 10 55 5 0 2 7 -5 16
-15 19 -20 62 -7 70 4 3 6 10 2 15 -3 5 -9 7 -13 5 -9 -6 -8 25 2 41 4 6 -1
14 -11 18 -16 6 -16 7 2 20 10 8 24 11 30 7 6 -4 24 -7 40 -7 33 0 47 -21 19
-29 -12 -3 -10 -4 6 -3 13 1 29 11 35 22 14 25 28 35 38 29 4 -3 9 0 9 5 1 6
2 17 3 23 0 7 13 19 29 26 27 13 39 36 13 26 -18 -7 -31 27 -14 38 18 11 38
10 38 -2 0 -6 8 -5 19 2 14 8 17 16 10 24 -6 8 -4 13 9 16 23 6 65 -9 58 -21
-3 -5 3 -11 14 -14 22 -6 23 12 0 30 -13 11 -13 12 1 13 9 0 24 -10 32 -22 9
-13 16 -17 16 -10 1 6 -8 21 -19 32 -11 11 -15 20 -9 20 5 0 7 5 4 10 -8 13
11 13 36 0 11 -6 19 -7 19 -2 0 12 38 25 63 22 10 -1 25 4 33 11 8 7 14 8 13
3 -4 -22 2 -45 10 -40 5 4 8 14 6 24 -1 9 4 25 12 34 8 9 12 22 7 29 -5 9 -2
10 9 6 10 -4 32 3 52 14 22 13 35 17 35 9 0 -7 6 -5 16 4 8 9 27 19 42 22 15
3 48 12 75 20 26 7 47 11 47 8 0 -3 9 0 20 6 15 8 20 8 20 -2 0 -10 2 -10 9 0
12 19 72 18 86 -1 17 -23 28 -21 16 2 -12 22 -5 31 22 31 13 0 17 -5 14 -15
-4 -8 -2 -17 4 -20 5 -4 6 -11 3 -17 -4 -7 -2 -8 4 -4 7 4 12 16 12 26 0 10 8
24 18 29 12 8 -129 10 -463 8 l-481 -2 -94 -54 c-52 -30 -125 -74 -162 -98
-62 -40 -105 -53 -122 -35 -4 4 -17 7 -29 8 -12 0 -32 6 -45 12 -12 7 -27 10
-32 7 -5 -3 -12 0 -16 6 -5 8 -3 9 6 4 9 -5 11 -4 6 4 -4 6 -12 8 -18 5 -15
-10 -68 -13 -68 -4 0 4 -11 6 -25 5 -14 -2 -25 1 -25 6 0 5 5 9 10 9 17 0 25
3 38 17 10 9 19 10 33 3 10 -6 19 -8 19 -4 0 3 8 0 17 -7 15 -12 16 -12 8 1
-7 12 -6 13 6 5 27 -20 106 -10 139 18 17 15 31 30 31 34 0 4 3 10 6 13 4 3 3
-1 -1 -7 -4 -7 -2 -13 3 -13 6 0 11 5 11 11 0 6 6 9 13 6 20 -7 48 18 41 37
-6 14 -54 16 -515 16 l-509 0 0 -504z m4244 487 c4 -5 12 -8 17 -8 20 0 12
-18 -8 -20 -13 -1 -21 1 -18 3 3 3 0 11 -6 19 -12 14 2 19 15 6z m33 -58 c0
-11 -4 -12 -14 -4 -7 6 -13 15 -13 20 0 5 6 6 13 3 8 -3 14 -11 14 -19z
m-3372 -15 c3 -5 1 -10 -4 -10 -6 0 -11 5 -11 10 0 6 2 10 4 10 3 0 8 -4 11
-10z m2046 -43 c-6 -8 -8 -16 -5 -19 3 -3 1 -9 -4 -12 -6 -3 -9 0 -8 6 2 16
15 38 23 38 3 0 0 -6 -6 -13z m1493 -8 c-3 -5 -10 -7 -15 -3 -5 3 -7 10 -3 15
3 5 10 7 15 3 5 -3 7 -10 3 -15z m-2779 -9 c3 -5 1 -10 -4 -10 -6 0 -11 5 -11
10 0 6 2 10 4 10 3 0 8 -4 11 -10z m1301 -66 c-3 -7 -1 -16 5 -19 5 -4 7 -11
3 -16 -3 -5 -10 -7 -15 -3 -5 3 -7 10 -4 15 4 5 1 9 -6 9 -8 0 -9 3 0 13 6 8
7 18 3 22 -4 5 -1 5 6 1 7 -5 11 -14 8 -22z m782 -71 c-15 -18 -20 -45 -7 -37
5 3 6 11 3 17 -4 7 2 3 13 -8 11 -11 16 -22 11 -23 -4 -2 -5 -9 -2 -14 4 -7 2
-8 -5 -4 -6 4 -8 12 -5 18 4 7 2 8 -5 4 -6 -4 -9 -11 -6 -16 3 -5 -3 -13 -12
-19 -14 -8 -11 -9 17 -8 34 2 40 -2 40 -24 0 -8 -4 -8 -14 0 -8 7 -16 8 -18 4
-8 -15 -3 -38 7 -38 6 0 9 3 8 8 -2 4 7 7 19 7 l22 0 -22 -16 c-17 -11 -20
-19 -13 -28 6 -7 8 -16 4 -19 -6 -7 11 -11 35 -8 7 1 15 -5 18 -14 5 -12 9
-13 20 -4 13 11 18 4 16 -21 0 -3 15 -5 34 -6 36 -1 41 5 22 24 -7 7 -10 12
-7 13 7 1 33 7 49 10 8 2 14 -2 12 -9 -1 -8 2 -11 8 -7 8 5 8 11 0 20 -7 8 -8
20 -4 27 6 9 3 9 -9 -1 -10 -8 -20 -11 -24 -7 -3 3 -1 6 6 6 7 0 10 4 7 8 -2
4 4 8 14 9 11 1 22 -2 25 -7 3 -4 14 -6 25 -3 14 4 20 0 20 -11 0 -9 5 -16 11
-16 6 0 9 -7 5 -15 -3 -9 0 -15 9 -15 7 0 17 -5 21 -12 5 -7 3 -8 -6 -3 -9 5
-11 4 -6 -4 4 -6 14 -10 21 -9 8 2 21 -6 30 -17 9 -11 13 -13 10 -5 -4 8 4 2
18 -13 14 -16 30 -26 35 -23 5 3 15 -1 22 -9 7 -8 18 -15 25 -15 7 0 15 -7 19
-15 3 -8 12 -15 20 -15 8 0 18 -9 21 -20 3 -11 12 -20 19 -20 34 0 325 -336
329 -379 0 -11 4 -19 7 -18 3 1 6 -1 8 -5 2 -4 16 -21 33 -39 16 -17 29 -39
29 -50 0 -10 6 -22 14 -26 8 -4 31 -39 51 -76 19 -38 31 -66 25 -62 -6 4 -17
1 -25 -5 -8 -7 -15 -9 -15 -4 0 5 -5 2 -10 -6 -8 -13 -10 -12 -10 3 0 9 -5 17
-11 17 -5 0 -8 4 -4 9 3 5 1 13 -5 16 -6 4 -9 1 -8 -7 2 -7 -3 -12 -11 -10 -7
1 -19 -2 -26 -8 -9 -8 -15 -8 -20 0 -4 7 -12 7 -26 0 -11 -6 -16 -16 -13 -22
4 -7 2 -8 -5 -4 -9 6 -9 11 0 22 12 15 2 18 -25 8 -9 -3 -13 -11 -9 -17 3 -6
1 -7 -6 -3 -6 4 -9 12 -6 17 4 5 1 9 -6 9 -8 0 -8 4 1 15 7 8 16 12 21 9 5 -3
9 0 9 5 0 12 -13 14 -24 4 -10 -10 -46 -11 -47 -1 -1 4 -2 14 -3 21 0 6 -7 13
-13 13 -7 1 -20 2 -29 3 -9 0 -14 7 -12 13 3 7 -1 18 -8 25 -7 7 -10 22 -7 34
4 15 2 20 -5 15 -11 -6 -9 -34 3 -59 4 -6 0 -4 -8 5 -15 19 -16 65 -2 88 8 13
6 13 -8 1 -9 -7 -14 -17 -11 -22 3 -5 1 -9 -5 -9 -14 0 -68 73 -68 92 0 12 4
15 12 8 6 -5 22 -12 36 -14 13 -3 25 -5 27 -5 2 -1 0 -6 -3 -11 -5 -8 -11 -8
-20 0 -9 8 -14 7 -18 -3 -5 -14 26 -17 39 -5 3 4 12 4 19 2 7 -3 16 -1 20 5 3
7 0 8 -9 5 -9 -3 -16 -2 -16 3 0 5 11 9 25 9 14 0 25 -3 25 -6 0 -3 9 -11 21
-18 12 -8 18 -9 14 -3 -6 12 0 15 49 26 42 9 27 16 -50 22 -38 3 -76 6 -84 7
-8 1 -30 9 -47 19 -18 10 -33 14 -33 10 0 -5 -7 0 -15 11 -7 10 -25 19 -39 20
-26 1 -34 10 -17 21 5 3 12 1 16 -4 3 -5 14 -9 25 -8 10 1 17 5 14 9 -3 4 -11
5 -18 2 -9 -3 -17 3 -21 15 -3 12 -11 21 -16 21 -6 0 -8 -4 -5 -9 3 -5 0 -11
-7 -14 -15 -6 -17 27 -2 40 4 5 5 2 0 -6 -5 -9 -4 -12 3 -7 19 12 14 24 -10
24 -38 0 -60 8 -73 26 -7 9 -17 16 -21 15 -20 -3 -32 2 -38 17 -3 8 -2 12 4 9
6 -3 10 -1 10 5 0 6 -15 17 -32 25 -18 8 -29 14 -25 15 5 0 -1 12 -12 26 -11
15 -18 30 -15 35 3 5 1 9 -4 9 -5 0 -15 20 -21 45 -6 25 -17 45 -24 45 -9 0
-8 3 2 9 7 5 9 11 4 14 -5 3 -14 -3 -21 -13 -10 -16 -8 -22 8 -33 11 -8 17
-17 13 -20 -3 -4 -13 -1 -22 5 -11 9 -11 7 2 -8 10 -12 17 -28 15 -35 -2 -8 3
-13 12 -11 8 2 12 0 7 -4 -4 -4 -16 -8 -27 -9 -11 -1 -18 1 -15 3 3 3 -4 12
-15 19 -11 8 -18 19 -15 24 3 5 0 7 -7 4 -7 -3 -28 8 -47 24 -19 17 -38 28
-41 26 -3 -2 -22 11 -42 28 -19 18 -41 33 -48 35 -17 4 -71 42 -88 62 -9 10
-11 10 -6 1 5 -9 3 -12 -5 -7 -6 4 -9 18 -7 31 4 20 1 23 -22 19 -47 -8 -55
-6 -152 39 -52 24 -147 62 -210 82 -126 42 -145 52 -106 54 57 4 66 6 66 11 0
4 7 7 15 7 8 0 15 -4 15 -9 0 -4 7 -8 15 -8 8 0 15 5 15 11 0 8 4 8 14 0 10
-8 16 -9 21 -1 4 7 13 6 26 -3 12 -9 38 -13 67 -11 31 3 40 1 28 -4 -19 -8
-19 -9 4 -15 13 -3 33 -1 44 6 12 6 26 10 32 9 6 -1 17 4 23 12 7 8 20 12 28
9 9 -4 14 -2 10 3 -3 6 -2 16 2 23 6 10 10 9 14 -4 5 -10 3 -14 -5 -9 -7 4 -8
3 -4 -5 4 -6 12 -9 17 -5 5 3 7 9 4 14 -3 5 4 12 15 15 17 5 19 9 9 21 -7 8
11 3 40 -12 42 -22 49 -29 39 -41z m-824 36 c-3 -5 -10 -7 -15 -3 -5 3 -7 10
-3 15 3 5 10 7 15 3 5 -3 7 -10 3 -15z m233 -44 c0 -8 -4 -12 -9 -9 -5 3 -6
10 -3 15 9 13 12 11 12 -6z m-1852 -25 c-3 -5 -12 -10 -18 -10 -7 0 -6 4 3 10
19 12 23 12 15 0z m-41 -45 c3 -8 1 -15 -4 -15 -6 0 -10 7 -10 15 0 8 2 15 4
15 2 0 6 -7 10 -15z m3410 -14 c3 -5 0 -11 -7 -14 -8 -3 -14 1 -14 9 0 16 13
19 21 5z m-3456 -22 c3 -12 2 -12 -6 0 -6 8 -15 10 -22 6 -9 -5 -11 -4 -6 4
10 15 28 10 34 -10z m2657 -18 c3 -5 2 -12 -3 -15 -5 -3 -9 1 -9 9 0 17 3 19
12 6z m-55 -42 c0 -5 -4 -9 -10 -9 -5 0 -10 7 -10 16 0 8 5 12 10 9 6 -3 10
-10 10 -16z m95 1 c3 -6 -1 -7 -9 -4 -18 7 -21 14 -7 14 6 0 13 -4 16 -10z
m-240 -30 c3 -5 1 -10 -4 -10 -6 0 -11 5 -11 10 0 6 2 10 4 10 3 0 8 -4 11
-10z m-3438 -55 c0 -8 -3 -13 -5 -10 -3 3 -12 -1 -21 -7 -10 -8 -9 -4 3 10 23
26 23 26 23 7z m2433 -8 l35 -21 -20 23 -20 24 24 -8 c14 -4 43 -7 66 -7 22 1
52 -5 66 -12 14 -7 33 -12 42 -10 9 1 17 -2 17 -7 0 -5 -10 -8 -22 -5 -19 3
-23 -1 -23 -20 0 -15 5 -22 12 -20 7 3 15 0 19 -6 4 -6 3 -8 -3 -5 -6 4 -22
-2 -36 -13 -27 -22 -47 -26 -47 -10 0 5 7 6 17 3 12 -5 14 -3 8 7 -6 9 -4 11
5 5 9 -5 11 -4 6 3 -5 8 -13 9 -25 3 -9 -5 -29 -8 -44 -7 -19 2 -25 0 -20 -8
5 -7 1 -5 -7 4 -9 9 -21 15 -28 14 -7 -1 -8 0 -2 3 5 2 8 9 5 13 -3 5 4 7 16
5 12 -2 20 -3 18 -1 -2 3 -8 5 -14 6 -5 1 -17 7 -25 14 -23 20 -50 27 -50 14
0 -9 -3 -9 -12 0 -15 15 -32 16 -23 2 11 -17 -17 -11 -32 8 -13 15 -14 15 -10
-11 3 -16 -2 -34 -9 -42 -12 -12 -19 -12 -49 1 -31 13 -35 12 -44 -4 -9 -15
-12 -15 -21 -2 -8 12 -10 12 -10 1 0 -11 -3 -11 -15 -1 -8 6 -24 13 -37 15
-13 2 -32 6 -43 8 -11 2 -14 2 -7 0 17 -6 15 -23 -2 -23 -8 0 -17 8 -21 19 -4
14 -14 18 -43 17 -20 -1 -55 1 -77 4 -36 5 -30 7 50 19 50 7 110 16 135 20 25
4 95 8 155 8 95 1 115 -1 145 -20z m-540 -37 c0 -5 -10 -10 -22 -10 -19 0 -20
2 -8 10 19 13 30 13 30 0z m903 1 c25 -1 21 -21 -5 -21 -12 0 -18 -3 -14 -7 4
-4 14 -8 22 -8 31 0 12 -18 -22 -21 -23 -1 -32 1 -24 6 8 5 15 18 17 30 2 12
-1 19 -5 16 -4 -2 -14 0 -22 5 -11 7 -8 8 10 5 14 -3 33 -5 43 -5z m-2827 -13
c3 -4 -1 -5 -10 -4 -8 1 -18 5 -22 8 -3 4 1 5 10 4 8 -1 18 -5 22 -8z m2416
-10 c-9 -9 -15 -9 -24 1 -9 10 -9 12 -1 7 6 -3 15 -1 18 5 4 5 10 8 13 4 3 -3
0 -11 -6 -17z m466 6 c6 3 21 2 34 -3 13 -5 55 -19 93 -31 143 -46 440 -197
453 -231 2 -5 8 -9 13 -9 9 0 51 -28 124 -82 17 -12 58 -50 93 -85 34 -34 62
-60 62 -57 0 3 6 -1 14 -8 8 -7 12 -16 10 -20 -2 -3 12 -15 31 -27 19 -11 35
-27 35 -36 0 -9 4 -14 9 -11 4 3 7 -6 5 -19 -1 -14 1 -23 5 -21 4 3 22 -4 39
-14 22 -13 30 -24 25 -36 -4 -12 -8 -13 -14 -3 -4 7 -6 16 -4 19 2 3 -4 6 -14
6 -29 0 -21 -34 16 -66 26 -23 32 -34 24 -44 -8 -9 -6 -18 5 -32 8 -10 13 -14
10 -8 -3 6 1 11 9 11 10 0 11 -5 5 -17 -5 -9 -5 -22 0 -30 5 -9 5 -17 -1 -21
-6 -3 -3 -12 7 -20 15 -12 17 -12 9 0 -5 10 -4 12 4 7 9 -6 9 -11 -1 -24 -11
-13 -11 -14 1 -7 11 6 13 4 8 -8 -3 -9 -2 -19 4 -22 5 -4 18 -24 30 -46 13
-26 24 -37 32 -32 7 4 5 -2 -3 -12 -9 -11 -10 -16 -2 -11 11 6 15 -10 11 -41
0 -3 6 -10 15 -15 9 -5 14 -13 11 -19 -4 -5 -1 -9 5 -9 6 0 8 -4 5 -10 -3 -5
0 -10 7 -10 7 0 13 -10 14 -22 2 -42 13 -82 26 -89 7 -4 22 -15 33 -23 20 -15
20 -15 -3 -11 -20 4 -22 2 -11 -11 10 -13 15 -13 36 1 17 11 22 12 21 3 -2 -7
-7 -16 -11 -19 -4 -3 0 -12 9 -20 10 -8 15 -9 11 -2 -4 6 -2 15 4 19 7 4 9 3
5 -4 -3 -6 -1 -14 5 -17 5 -4 8 -13 5 -21 -4 -9 2 -14 15 -14 11 0 18 -4 15
-9 -4 -5 -2 -11 3 -13 6 -1 12 -14 15 -28 13 -63 28 -117 37 -134 7 -13 7 -16
0 -11 -7 3 -11 -2 -11 -14 0 -11 5 -23 11 -26 7 -5 4 -14 -7 -26 -22 -25 -27
-50 -8 -42 19 7 18 -21 -1 -37 -29 -24 -17 -76 16 -72 3 1 4 -10 1 -23 -2 -14
-8 -22 -13 -19 -5 3 -7 10 -4 15 4 5 1 9 -5 9 -13 0 -3 -41 12 -51 6 -4 6 -15
-2 -29 -8 -15 -8 -20 -1 -16 20 13 33 -5 14 -20 -17 -13 -17 -13 1 -14 11 0
16 -3 13 -7 -4 -3 -2 -11 3 -18 6 -8 5 -18 -3 -30 -10 -13 -11 -27 -3 -55 23
-90 -88 -587 -127 -563 -8 5 -8 8 1 11 7 2 12 8 12 14 0 6 -8 7 -17 4 -16 -6
-16 -6 0 12 9 10 17 26 17 35 0 9 4 17 9 17 5 0 7 9 4 20 -6 21 -23 28 -23 10
0 -6 -6 -6 -13 2 -15 13 -11 48 4 48 5 0 9 5 9 10 0 6 -9 10 -20 10 -11 0 -20
4 -20 10 0 14 32 50 40 45 4 -2 7 2 7 9 0 7 -8 11 -17 9 -13 -3 -16 5 -15 48
0 38 -4 54 -15 57 -13 5 -13 3 0 -13 13 -16 13 -18 0 -13 -8 2 -15 12 -15 21
0 8 -4 19 -8 23 -4 4 -2 13 4 21 8 9 8 17 1 26 -8 10 -6 21 8 44 13 23 15 33
7 36 -9 3 -9 9 0 24 6 11 8 25 4 32 -4 7 -7 27 -6 46 2 21 -2 33 -9 32 -6 -1
-11 8 -10 21 0 12 -3 22 -8 22 -4 0 -8 9 -8 21 0 13 -4 18 -12 13 -7 -4 -5 2
5 13 11 13 14 23 8 27 -6 4 -8 13 -4 21 3 8 0 15 -6 15 -19 0 -34 40 -20 56 6
8 8 14 5 14 -4 0 -4 5 -1 10 5 8 12 7 23 -2 15 -11 15 -11 5 3 -7 9 -9 19 -5
24 4 4 -6 0 -22 -11 -29 -18 -29 -18 -18 2 8 16 8 24 -1 33 -9 10 -8 12 7 9
12 -2 20 4 22 15 3 22 33 47 49 40 7 -2 18 3 25 12 7 8 9 15 4 15 -5 0 -2 5 6
10 13 8 12 10 -2 10 -16 0 -23 -11 -19 -33 1 -5 -3 -5 -9 -2 -6 4 -9 13 -6 20
2 7 -1 18 -7 25 -9 10 -9 11 1 6 15 -9 16 10 1 19 -6 4 -8 14 -4 22 4 13 3 14
-10 3 -8 -7 -12 -17 -8 -23 3 -6 1 -7 -5 -3 -6 4 -8 14 -5 23 5 12 3 14 -8 8
-12 -8 -12 -6 0 9 12 15 12 19 -2 33 -14 14 -18 14 -33 2 -12 -9 -15 -10 -10
-1 4 6 2 13 -3 13 -6 1 -15 2 -20 3 -5 0 -13 5 -18 10 -4 5 -3 7 3 3 6 -3 11
0 11 8 0 13 -3 13 -22 1 -15 -10 -22 -11 -23 -3 0 7 -3 19 -5 27 -2 8 -7 32
-11 52 -5 21 -11 36 -15 33 -4 -2 -8 2 -8 10 0 8 5 12 10 8 5 -3 4 4 -3 16 -6
12 -16 18 -22 15 -7 -4 -8 -3 -4 5 4 6 11 9 15 7 4 -3 8 1 8 8 0 8 -6 12 -12
10 -6 -3 -12 2 -12 10 0 8 5 12 11 9 6 -3 5 0 -1 8 -16 17 -17 33 -1 23 6 -4
-3 11 -22 34 -18 23 -38 42 -43 42 -6 0 0 11 12 24 17 18 19 26 10 31 -8 6
-10 4 -5 -6 4 -8 1 -5 -8 5 -8 10 -13 23 -10 28 3 4 -2 11 -10 14 -9 3 -16 15
-16 25 0 10 -6 19 -14 19 -9 0 -12 7 -9 19 3 10 -2 30 -11 43 -9 14 -13 28 -9
33 5 4 2 5 -5 1 -7 -4 -9 -12 -6 -18 4 -7 2 -8 -5 -4 -6 4 -9 11 -6 16 3 5 -3
18 -15 30 -23 23 -15 28 10 5 15 -13 17 -13 17 0 0 8 -3 13 -5 10 -3 -3 -15 4
-26 14 -12 11 -25 21 -31 23 -5 2 -9 7 -7 11 1 5 -7 20 -18 34 -11 14 -17 30
-13 36 4 6 0 8 -10 4 -9 -3 -19 -1 -23 5 -4 7 -3 8 4 4 16 -10 15 2 -2 19 -7
8 -17 11 -21 7 -5 -4 -5 -1 -1 6 4 7 1 15 -8 18 -9 3 -13 10 -10 15 3 5 11 6
17 3 7 -4 9 -4 5 0 -3 4 -10 8 -15 7 -4 0 -18 10 -31 22 -13 12 -25 21 -28 20
-2 -2 -4 0 -5 5 -1 14 -21 32 -29 27 -5 -3 -12 0 -16 6 -5 8 -3 9 7 4 8 -4 -5
9 -28 29 -26 23 -40 42 -36 51 6 18 -13 20 -23 3 -5 -7 -3 -8 6 -3 9 5 11 4 6
-4 -11 -17 -36 5 -36 30 0 11 -5 19 -11 19 -5 0 -7 -6 -3 -12 4 -7 -2 -4 -15
6 -12 11 -19 26 -17 33 6 14 -35 37 -74 42 -5 0 -10 7 -10 14 0 7 -9 18 -20
24 -16 11 -21 10 -30 -5 -9 -14 -10 -11 -5 13 4 21 3 26 -4 15 -8 -12 -12 -12
-28 2 -13 12 -23 14 -35 7 -18 -10 -34 4 -24 20 3 5 0 13 -7 19 -14 11 -48 12
-41 1 2 -5 11 -6 18 -3 8 3 16 1 20 -4 9 -15 -36 -6 -48 10 -6 8 -17 13 -25
10 -8 -3 -11 0 -7 7 4 6 0 11 -9 11 -10 0 -13 -5 -9 -12 4 -7 -2 -5 -14 5 -12
11 -26 16 -33 11 -9 -5 -10 -2 -6 9 5 14 0 17 -28 17 -18 0 -37 5 -41 12 -4 7
-3 8 4 4 8 -5 10 -2 6 8 -3 9 -11 13 -16 10 -6 -4 -20 4 -30 17 -11 13 -16 17
-12 9 6 -12 4 -13 -6 -3 -15 14 -25 57 -12 49 5 -3 9 1 9 9 0 11 -4 12 -13 4
-6 -5 -18 -8 -25 -7 -8 2 -13 -4 -11 -12 2 -8 0 -11 -4 -7 -11 11 -14 38 -4
32 14 -8 43 26 31 38 -5 5 -7 16 -4 24 4 11 8 12 13 3 4 -7 12 -10 18 -6z
m-1051 -24 c4 -12 3 -12 -5 -1 -6 8 -18 11 -33 6 -19 -5 -21 -4 -9 4 20 14 42
10 47 -9z m2869 -5 c2 -11 -2 -12 -17 -2 -13 8 -15 13 -6 19 13 8 20 3 23 -17z
m-3076 -39 c0 -2 -8 -10 -17 -17 -16 -13 -17 -12 -4 4 13 16 21 21 21 13z
m-160 -90 c0 -3 -4 -8 -10 -11 -5 -3 -10 -1 -10 4 0 6 5 11 10 11 6 0 10 -2
10 -4z m-30 -16 c0 -5 -4 -10 -9 -10 -6 0 -13 5 -16 10 -3 6 1 10 9 10 9 0 16
-4 16 -10z m-180 -100 c0 -5 -5 -10 -11 -10 -5 0 -7 5 -4 10 3 6 8 10 11 10 2
0 4 -4 4 -10z m2041 -57 c13 -16 12 -17 -3 -4 -17 13 -22 21 -14 21 2 0 10 -8
17 -17z m1471 -33 c6 0 5 7 -2 15 -7 8 -10 15 -7 15 3 0 14 3 24 7 10 3 15 3
11 -2 -4 -4 -2 -15 5 -23 8 -11 8 -14 0 -9 -15 9 -27 -9 -16 -25 4 -7 8 -19 9
-26 2 -8 6 -17 10 -20 4 -4 4 1 1 10 -9 25 9 31 36 13 13 -8 26 -12 30 -9 8 8
3 -18 -6 -33 -5 -7 -17 -13 -28 -13 -14 0 -18 4 -13 13 6 8 3 8 -9 -2 -15 -12
-20 -7 -49 39 -17 28 -33 61 -33 73 l-2 21 15 -22 c8 -12 19 -22 24 -22z m67
26 c9 -11 9 -16 -1 -22 -7 -4 -10 -4 -6 1 4 4 3 14 -3 22 -6 7 -9 13 -6 13 2
0 10 -6 16 -14z m-3713 -53 c-10 -10 -19 5 -10 18 6 11 8 11 12 0 2 -7 1 -15
-2 -18z m3754 -8 c0 -2 -9 -3 -19 -2 -11 0 -18 5 -15 9 4 6 34 0 34 -7z
m-3855 -65 c3 -5 -1 -10 -10 -10 -9 0 -13 5 -10 10 3 6 8 10 10 10 2 0 7 -4
10 -10z m2419 -8 c3 -5 -1 -9 -9 -9 -8 0 -12 4 -9 9 3 4 7 8 9 8 2 0 6 -4 9
-8z m1393 -17 c0 -6 -6 -12 -14 -12 -7 0 -13 6 -13 12 0 6 6 12 13 12 8 0 14
-6 14 -12z m37 -6 c-3 -5 -10 -7 -15 -3 -5 3 -7 10 -3 15 3 5 10 7 15 3 5 -3
7 -10 3 -15z m-3884 8 c0 -2 -10 -12 -22 -23 l-23 -19 19 23 c18 21 26 27 26
19z m-667 -165 c43 -4 80 -5 83 -3 7 7 44 8 44 1 0 -3 -13 -27 -30 -53 -16
-26 -30 -52 -30 -57 0 -6 -4 -10 -8 -10 -5 0 -14 -12 -20 -26 -7 -14 -17 -22
-22 -19 -5 3 -7 0 -4 -9 6 -16 -31 -96 -45 -96 -5 0 -12 7 -15 15 -4 11 0 15
12 13 10 -2 16 2 14 11 -2 8 3 18 10 22 10 6 10 11 1 20 -6 6 -9 19 -6 28 4 9
2 13 -2 8 -10 -9 -45 21 -45 38 0 7 -6 18 -14 24 -8 7 -12 21 -8 33 3 13 1 19
-5 15 -6 -4 -24 0 -39 8 -22 11 -31 12 -43 2 -14 -11 -14 -10 -1 7 8 11 14 27
12 36 -2 15 2 16 40 8 24 -5 78 -12 121 -16z m524 3 c0 -8 -4 -15 -9 -15 -10
0 -11 14 -1 23 9 10 10 9 10 -8z m3479 -32 c-3 -19 -16 -28 -16 -10 0 8 -6 17
-12 20 -7 3 -3 5 8 4 12 -1 21 -7 20 -14z m-416 -19 c0 -8 -4 -12 -10 -9 -5 3
-10 10 -10 16 0 5 5 9 10 9 6 0 10 -7 10 -16z m-3109 -11 c13 -16 12 -17 -3
-4 -10 7 -18 15 -18 17 0 8 8 3 21 -13z m3855 -75 c5 -7 3 -8 -6 -3 -8 5 -2
-7 12 -26 14 -19 31 -52 38 -74 7 -22 16 -44 21 -49 5 -6 9 -22 9 -36 0 -15 3
-30 7 -33 3 -4 8 -23 10 -43 2 -20 10 -52 18 -70 8 -20 10 -36 4 -39 -5 -4 -7
-10 -5 -14 5 -8 14 -49 21 -93 2 -15 -1 -30 -6 -34 -6 -3 -3 -12 8 -21 10 -8
13 -12 7 -9 -15 8 -26 -21 -12 -30 6 -4 8 -3 5 3 -3 5 1 10 10 10 13 0 11 -4
-6 -18 -22 -18 -18 -28 11 -24 12 2 15 -3 12 -16 -2 -10 -6 -29 -9 -41 l-4
-23 19 24 c11 13 20 20 20 16 0 -4 6 -2 14 4 12 10 14 9 11 -6 -1 -10 4 -28
11 -40 8 -13 12 -23 9 -23 -2 0 0 -11 5 -24 5 -15 5 -27 -2 -34 -8 -8 -8 -15
2 -27 10 -13 9 -15 -6 -17 -11 0 -25 -2 -32 -2 -7 -1 -16 -6 -20 -11 -4 -6
-14 -11 -22 -13 -10 -1 -9 3 5 14 11 8 19 20 17 26 -2 7 3 7 12 -1 16 -14 40
-6 30 10 -3 5 0 18 7 27 13 16 12 16 -6 1 -21 -17 -58 -22 -49 -7 3 5 11 5 17
2 7 -4 9 -3 4 1 -12 14 -45 16 -53 3 -5 -7 -3 -8 7 -3 11 7 12 6 2 -7 -7 -8
-9 -19 -5 -24 4 -4 -1 -2 -10 5 -15 11 -21 11 -33 1 -8 -7 -15 -10 -15 -6 0 3
0 9 0 14 0 4 5 8 10 8 6 1 13 2 18 3 4 0 12 9 19 19 9 15 8 19 -3 19 -7 0 -11
-4 -7 -10 3 -5 -5 -7 -18 -5 -14 2 -23 9 -21 17 3 12 0 12 -14 0 -9 -8 -27
-15 -38 -15 -42 -3 -47 -4 -41 -13 3 -5 1 -12 -4 -16 -6 -3 -8 6 -5 21 3 14 1
23 -4 20 -5 -3 -9 1 -9 9 0 8 5 11 11 8 6 -4 6 0 -1 8 -7 8 -17 37 -23 64 -7
28 -14 59 -17 70 -3 11 -6 30 -7 42 0 11 -5 19 -10 15 -5 -3 -7 2 -3 11 3 9 2
19 -3 22 -7 4 -6 13 0 25 7 13 7 21 -2 26 -7 5 -8 3 -3 -7 5 -8 5 -11 1 -7 -4
3 -8 10 -8 15 0 4 -4 16 -10 27 -8 14 -7 17 4 10 11 -6 11 -5 -1 9 -9 11 -10
17 -2 17 6 0 11 5 11 11 0 6 -7 9 -15 5 -8 -3 -14 0 -12 7 1 7 -4 11 -10 10
-17 -4 -12 18 7 35 8 7 11 12 5 11 -19 -3 -26 1 -20 11 4 7 14 6 28 -1 19 -10
20 -9 7 2 -8 8 -20 21 -28 29 -10 11 -12 11 -6 1 5 -10 3 -12 -5 -6 -9 5 -10
10 -2 18 7 7 5 14 -7 23 -9 7 -18 17 -18 23 -1 6 -2 16 -3 22 0 5 -6 7 -13 3
-7 -4 -8 -3 -4 5 4 6 11 9 16 6 5 -3 12 -1 15 5 4 6 1 9 -7 8 -8 -2 -12 4 -10
16 2 10 -1 15 -7 12 -5 -4 -13 -1 -17 5 -4 7 -3 9 3 6 6 -4 13 0 17 8 3 8 2
15 -3 15 -4 0 -8 7 -8 14 0 11 5 12 18 5 12 -6 20 -5 25 3 4 7 3 8 -4 4 -17
-10 -15 -1 4 14 8 8 14 9 12 3 -2 -6 0 -11 5 -12 22 -3 27 0 21 12 -6 9 -4 9
8 -1 13 -10 20 -9 39 9 13 11 18 18 12 14 -8 -4 -11 -1 -8 7 7 17 52 22 61 6z
m-4412 -59 c-2 -4 0 -10 5 -13 5 -4 12 -2 16 4 10 17 23 11 19 -7 -7 -26 -48
-25 -60 1 -8 18 -7 22 7 22 10 0 16 -4 13 -7z m-45 -13 c11 -14 6 -15 -27 -7
-4 1 8 21 12 21 2 0 9 -6 15 -14z m3646 -65 c3 -5 2 -12 -3 -15 -5 -3 -9 1 -9
9 0 17 3 19 12 6z m-3593 -35 c-4 -22 16 -21 20 2 2 9 6 13 10 7 4 -6 -2 -22
-13 -35 -15 -20 -21 -22 -28 -11 -5 7 -14 10 -20 7 -16 -11 -13 10 4 24 8 7
12 17 8 22 -3 6 0 8 8 6 8 -3 13 -12 11 -22z m-5 -70 c3 -3 2 -13 -2 -23 -8
-17 -8 -17 -12 0 -3 12 -11 16 -22 12 -11 -3 -18 0 -18 8 0 13 42 16 54 3z
m368 4 c3 -5 2 -10 -4 -10 -5 0 -13 5 -16 10 -3 6 -2 10 4 10 5 0 13 -4 16
-10z m2719 -171 c-6 -11 -24 -2 -24 11 0 5 7 7 15 4 8 -4 12 -10 9 -15z m76
-43 c0 3 5 2 11 -1 7 -5 2 -16 -13 -32 -15 -16 -17 -22 -6 -18 9 4 19 2 23 -4
4 -8 12 -8 25 -1 15 8 21 6 30 -10 6 -12 16 -18 23 -14 7 4 3 -3 -8 -16 -17
-20 -18 -23 -2 -17 10 4 17 2 17 -5 0 -6 8 -21 18 -32 15 -19 15 -19 0 -7 -16
12 -17 8 -15 -43 1 -31 -2 -56 -8 -56 -5 0 1 -7 13 -16 12 -8 20 -19 17 -23
-2 -5 6 -6 18 -4 12 2 31 -3 42 -12 13 -10 15 -14 5 -13 -8 2 -14 -2 -13 -9 2
-7 -4 -10 -12 -7 -23 9 -18 -7 11 -37 23 -24 25 -31 16 -57 -6 -16 -7 -34 -2
-38 12 -13 21 -64 12 -64 -15 0 -30 22 -25 36 4 10 -3 14 -23 14 -15 0 -25 3
-22 6 3 3 2 21 -4 41 -11 41 -17 67 -24 106 -3 15 -12 39 -20 55 -7 15 -14 31
-14 36 0 18 -83 172 -113 210 -17 22 -25 36 -19 32 16 -10 15 7 0 23 -7 7 4 4
25 -8 20 -11 37 -18 37 -15z m-3280 -36 c0 -5 -5 -10 -11 -10 -5 0 -7 5 -4 10
3 6 8 10 11 10 2 0 4 -4 4 -10z m34 1 c3 -5 -1 -14 -8 -20 -12 -10 -14 -9 -11
6 2 10 4 19 4 21 2 5 10 2 15 -7z m2846 -32 c0 -7 3 -9 7 -5 8 8 73 -53 73
-70 0 -21 -29 -24 -39 -5 -6 10 -7 21 -4 25 3 3 2 6 -4 6 -6 0 -22 18 -37 40
-29 44 -34 59 -11 36 8 -8 15 -20 15 -27z m434 20 c-3 -5 -10 -7 -15 -3 -5 3
-7 10 -3 15 3 5 10 7 15 3 5 -3 7 -10 3 -15z m-3333 -96 c-10 -4 -10 -7 -1
-13 7 -4 8 -10 3 -13 -5 -3 -14 3 -21 14 -11 17 -9 19 10 18 13 0 17 -3 9 -6z
m3002 -60 c-5 -14 -8 -14 -11 -2 -3 7 -10 20 -16 28 -9 12 -8 12 11 2 15 -7
20 -17 16 -28z m424 2 c-4 -8 -2 -17 4 -20 5 -4 7 -11 3 -16 -9 -14 -23 -1
-19 19 2 9 4 20 4 25 1 4 4 7 7 7 3 0 4 -7 1 -15z m-383 -31 c5 -13 4 -14 -7
-6 -8 7 -18 8 -22 4 -5 -4 -5 -1 -1 6 10 17 23 15 30 -4z m974 -10 c-1 -5 -9
-9 -16 -10 -10 -2 -11 1 -1 12 12 14 24 13 17 -2z m-988 -20 c0 -8 -5 -12 -10
-9 -6 4 -8 11 -5 16 9 14 15 11 15 -7z m411 -17 c-10 -9 -11 -8 -5 6 3 10 9
15 12 12 3 -3 0 -11 -7 -18z m-3446 -6 c3 -5 1 -12 -5 -16 -5 -3 -10 1 -10 9
0 18 6 21 15 7z m4630 -10 c3 -5 2 -12 -3 -15 -5 -3 -9 1 -9 9 0 17 3 19 12 6z
m-43 -26 c-2 -9 1 -15 6 -11 5 3 9 -1 9 -8 0 -18 -32 -13 -32 5 0 8 -4 19 -8
26 -4 7 -1 10 10 8 11 -1 17 -9 15 -20z m-1501 -5 c10 -6 19 -15 19 -19 0 -15
-32 -6 -42 12 -10 20 -5 21 23 7z m974 -32 c-1 -15 -8 -23 -21 -23 -13 0 -18
-6 -16 -17 2 -13 -4 -18 -20 -18 -22 1 -22 2 9 30 22 20 31 36 28 50 -3 17 -1
19 9 11 7 -6 12 -21 11 -33z m725 -25 c-1 -9 -50 -47 -50 -39 0 5 41 46 47 46
2 0 3 -3 3 -7z m-536 -41 c2 -4 -4 -8 -14 -8 -10 0 -16 4 -14 8 3 4 9 8 14 8
5 0 11 -4 14 -8z m-784 -93 c0 -5 -4 -9 -10 -9 -5 0 -10 7 -10 16 0 8 5 12 10
9 6 -3 10 -10 10 -16z m35 -39 c3 -5 -1 -10 -9 -10 -9 0 -16 -5 -16 -11 0 -5
-4 -7 -10 -4 -5 3 -10 13 -10 21 0 16 36 19 45 4z m1235 -80 c0 -5 -2 -10 -4
-10 -3 0 -8 5 -11 10 -3 6 -1 10 4 10 6 0 11 -4 11 -10z m-9 -73 c-8 -8 -11
-5 -11 9 0 27 14 41 18 19 2 -9 -1 -22 -7 -28z m-4791 -16 c0 -5 -8 -15 -17
-22 -10 -7 -15 -9 -11 -5 4 5 3 15 -3 23 -9 10 -7 13 10 13 11 0 21 -4 21 -9z
m376 -3 c5 -7 3 -8 -7 -3 -8 5 -7 0 4 -12 18 -21 22 -34 10 -32 -28 5 -36 -2
-17 -15 13 -10 23 -11 31 -4 7 5 17 7 22 4 5 -4 13 -1 17 5 4 7 3 9 -3 6 -17
-10 -54 36 -43 53 8 12 10 12 10 -4 0 -16 2 -17 18 -5 14 11 15 11 5 -1 -18
-20 -16 -29 6 -25 15 3 19 -1 16 -16 -2 -10 -6 -23 -10 -28 -3 -5 -1 -12 4
-16 6 -3 8 -13 5 -23 -5 -14 -4 -14 4 -2 8 10 7 19 -1 30 -11 13 -10 13 6 1 9
-7 17 -21 17 -31 0 -20 26 -34 35 -19 4 5 3 9 -2 8 -17 -3 -24 1 -18 11 5 8
11 7 21 -1 7 -6 11 -15 8 -20 -3 -5 2 -9 11 -9 13 0 14 -4 5 -20 -7 -14 -7
-20 0 -20 10 0 50 -36 50 -45 0 -2 -10 -14 -22 -26 -13 -12 -17 -19 -10 -15 6
4 12 2 12 -3 0 -6 -6 -11 -12 -11 -7 0 -5 -5 5 -11 14 -8 16 -14 7 -24 -14
-17 -4 -38 13 -28 8 5 8 2 0 -9 -7 -8 -10 -18 -6 -22 4 -4 0 -4 -10 0 -9 3
-17 1 -17 -5 0 -14 35 -32 45 -23 5 4 5 1 1 -5 -12 -21 -16 -54 -5 -48 5 4 6
11 3 17 -4 6 -2 8 4 5 5 -4 9 -18 7 -32 -1 -14 2 -28 7 -31 4 -3 6 -10 3 -15
-4 -5 1 -10 9 -10 32 -3 36 -4 37 -14 1 -5 6 -19 12 -30 15 -27 19 -58 7 -50
-18 11 -11 -1 12 -21 12 -10 18 -13 14 -7 -5 9 -2 11 7 7 8 -3 14 -12 13 -21
0 -8 8 -20 19 -27 27 -15 48 -36 38 -36 -5 0 -14 5 -19 10 -7 7 -11 6 -11 -4
0 -8 3 -15 6 -14 25 2 38 -6 51 -34 8 -18 13 -37 12 -41 -1 -5 2 -6 8 -2 5 3
10 2 10 -2 0 -19 135 -215 194 -280 36 -41 59 -73 51 -73 -3 0 -1 -9 5 -19 7
-14 7 -22 -1 -27 -8 -4 -4 -11 11 -19 13 -7 25 -20 26 -28 2 -13 -1 -14 -16
-4 -10 6 -16 16 -13 22 4 5 2 6 -3 2 -11 -11 -14 -66 -3 -72 4 -3 6 6 5 20 -2
13 0 22 5 20 4 -3 6 -23 4 -45 -2 -22 1 -38 6 -34 5 3 9 1 9 -4 0 -5 13 -9 29
-10 17 0 38 -5 48 -9 33 -17 58 -10 57 15 -2 25 11 30 20 6 3 -8 2 -12 -4 -9
-6 3 -10 4 -10 1 0 -11 60 -34 66 -25 3 5 10 7 15 3 5 -3 -1 -14 -13 -24 -13
-11 -18 -19 -11 -20 6 0 13 6 16 13 2 6 8 9 12 5 4 -4 3 -13 -1 -20 -14 -21
-15 -46 -2 -54 7 -5 9 -2 5 9 -3 8 0 20 6 24 16 13 59 14 51 2 -3 -5 -14 -7
-25 -4 -14 5 -17 2 -13 -8 6 -16 52 -40 63 -32 5 2 17 -2 27 -10 17 -12 15
-13 -20 -10 -38 4 -38 4 -18 -16 12 -10 28 -16 36 -13 14 6 21 -5 17 -28 0 -4
6 -5 14 -1 13 4 14 1 6 -19 -9 -24 -8 -25 25 -22 24 2 34 -2 34 -12 0 -12 -12
-18 -31 -16 -4 1 -5 -7 -2 -18 3 -11 9 -17 14 -14 5 3 7 9 4 14 -6 9 19 20 43
19 12 0 10 -3 -6 -10 -27 -10 -21 -30 7 -24 23 4 38 -25 19 -36 -7 -4 -9 -11
-5 -15 4 -4 14 1 22 12 13 18 14 17 21 -13 3 -18 13 -33 20 -33 7 0 21 -12 30
-26 11 -17 24 -24 36 -21 11 3 18 0 18 -9 0 -10 -6 -11 -25 -4 -15 6 -25 6
-25 0 0 -9 59 -24 71 -18 3 2 13 -3 22 -11 14 -11 17 -11 17 -1 0 8 2 11 5 9
8 -9 -7 -49 -16 -43 -5 3 -7 10 -4 15 4 5 2 9 -4 9 -5 0 -12 -4 -15 -9 -6 -10
-136 34 -227 77 -36 18 -71 32 -77 32 -7 0 -12 4 -12 9 0 5 -12 14 -28 20 -30
13 -56 46 -47 61 4 6 1 10 -4 10 -6 0 -11 -5 -11 -11 0 -5 -5 -7 -10 -4 -7 4
-6 14 2 28 10 20 10 21 -6 7 -16 -13 -20 -12 -32 4 -7 11 -11 24 -7 29 4 6 0
8 -11 4 -14 -5 -17 -3 -13 8 4 8 1 17 -5 21 -7 4 -6 10 3 16 11 8 11 9 -2 5
-8 -3 -26 1 -39 8 -17 9 -29 10 -37 4 -8 -8 -10 -4 -6 12 4 15 2 20 -5 15 -6
-4 -19 2 -29 14 -18 20 -50 29 -38 10 4 -6 11 -7 17 -4 7 4 8 2 4 -4 -13 -21
-44 -33 -52 -20 -4 6 -3 8 4 4 6 -3 13 -2 17 3 3 6 -5 8 -19 5 -19 -3 -37 6
-73 39 -83 74 -113 108 -107 119 5 7 2 8 -6 3 -10 -6 -12 -4 -7 8 3 9 1 19 -5
23 -7 4 -8 3 -4 -4 4 -7 2 -12 -3 -12 -14 0 -14 12 -1 28 6 6 7 10 4 7 -4 -2
-13 3 -21 11 -8 8 -19 11 -25 8 -7 -4 -8 -2 -4 4 5 9 13 9 28 1 13 -7 18 -7
14 -1 -3 6 -2 13 4 17 7 4 6 14 -2 28 -6 12 -12 24 -12 27 -1 3 -4 4 -8 3 -11
-4 -17 26 -6 33 7 5 8 2 3 -6 -5 -9 -4 -11 4 -6 6 4 9 12 5 17 -3 5 -9 7 -13
5 -4 -3 -13 -1 -21 4 -13 8 -13 11 0 22 8 7 13 12 11 10 -2 -1 -13 6 -24 15
-19 17 -20 17 -14 1 4 -12 2 -15 -9 -11 -7 3 -14 9 -14 13 0 10 29 22 39 16
16 -10 5 56 -11 68 -10 7 -14 17 -10 21 4 5 0 6 -10 2 -20 -7 -31 3 -18 17 10
13 -86 123 -102 118 -5 -1 -7 1 -5 5 7 11 -18 45 -29 41 -5 -2 -10 1 -11 5 -1
4 -9 20 -18 34 -9 14 -12 22 -6 19 23 -15 -2 23 -26 39 -15 10 -22 22 -19 31
3 8 2 13 -3 10 -13 -8 -34 21 -26 35 6 8 2 8 -12 0 -25 -13 -37 -3 -21 16 10
12 8 14 -6 11 -12 -2 -20 4 -21 15 -2 9 1 15 6 11 20 -12 7 16 -16 34 -13 11
-21 22 -18 26 3 3 1 6 -5 6 -7 0 -12 5 -12 11 0 5 5 7 12 3 7 -5 8 -3 4 5 -5
7 -15 10 -23 7 -8 -3 -11 -1 -8 5 4 5 1 17 -7 26 -11 14 -11 16 1 9 8 -6 7 0
-4 18 -10 14 -14 26 -11 26 4 0 2 9 -4 19 -7 14 -7 22 0 26 6 4 3 17 -10 34
-10 16 -17 31 -14 34 3 3 2 11 -2 18 -7 11 -8 38 -5 81 1 12 15 2 17 -13 3
-19 4 -20 14 -14 6 4 4 15 -6 30 -10 16 -12 25 -4 30 6 3 8 11 4 16 -3 5 -10
6 -16 3 -7 -5 -9 0 -6 14 4 12 1 25 -4 29 -6 3 -8 1 -4 -5 3 -6 2 -13 -3 -17
-10 -6 -7 27 4 45 3 6 2 10 -3 10 -5 0 -8 15 -6 33 1 17 3 35 3 40 1 11 29 8
37 -5z m-346 -20 c0 -18 -2 -20 -9 -8 -6 8 -7 18 -5 22 9 14 14 9 14 -14z
m4749 5 c-8 -9 -16 -10 -30 -2 -26 13 -24 15 11 15 23 0 27 -2 19 -13z m-3334
-13 c-3 -5 -11 -10 -16 -10 -6 0 -7 5 -4 10 3 6 11 10 16 10 6 0 7 -4 4 -10z
m-1428 -27 c5 3 10 -5 11 -18 1 -13 -2 -26 -7 -29 -12 -8 -34 21 -26 34 4 6 3
10 -2 9 -17 -3 -24 1 -18 11 5 8 11 7 20 0 8 -7 18 -9 22 -7z m383 1 c0 -8
-19 -13 -24 -6 -3 5 1 9 9 9 8 0 15 -2 15 -3z m4364 -2 c3 -5 -1 -9 -9 -9 -8
0 -12 4 -9 9 3 4 7 8 9 8 2 0 6 -4 9 -8z m-3324 -23 c0 -5 4 -8 9 -5 5 3 9 -5
9 -19 0 -26 -23 -42 -24 -16 -1 9 -4 24 -9 34 -4 10 -3 17 4 17 6 0 11 -5 11
-11z m-1413 -39 c6 0 9 -9 6 -20 -5 -17 -8 -18 -22 -8 -14 11 -14 11 -3 -3 7
-9 11 -23 10 -30 -3 -16 -39 -45 -50 -41 -5 1 -8 -4 -8 -11 0 -19 -36 -50 -49
-43 -5 4 -12 2 -16 -4 -4 -6 -11 -7 -17 -4 -7 4 -8 2 -4 -5 4 -6 13 -8 19 -5
7 4 8 3 4 -2 -5 -5 -13 -10 -18 -10 -5 -1 -13 -2 -19 -3 -5 0 -10 -6 -10 -12
0 -5 4 -8 8 -5 10 6 9 -30 -1 -40 -4 -4 -4 -18 0 -32 4 -17 2 -23 -6 -18 -6 4
-11 2 -11 -4 0 -6 10 -8 24 -4 25 6 36 -13 36 -69 0 -20 4 -26 13 -21 9 6 9 4
-1 -8 -9 -12 -10 -18 -2 -23 6 -4 9 -13 6 -21 -3 -8 1 -17 8 -20 8 -3 12 -14
9 -24 -3 -11 3 -26 16 -36 12 -10 21 -26 21 -34 0 -9 5 -21 12 -28 7 -7 8 -12
4 -12 -5 0 -3 -7 5 -16 10 -13 10 -17 -2 -25 -12 -7 -12 -9 1 -10 8 -1 18 -1
22 0 4 0 5 -5 2 -13 -3 -8 -1 -17 4 -20 5 -3 8 -17 6 -31 -2 -22 0 -24 12 -14
8 7 14 8 13 3 -5 -20 21 -65 33 -58 9 5 8 2 -1 -9 -12 -16 -12 -17 5 -10 17 6
18 5 5 -11 -12 -15 -12 -17 0 -14 8 2 13 -4 11 -14 -1 -10 6 -23 18 -30 11 -7
20 -19 20 -26 0 -7 -5 -10 -11 -6 -6 3 -4 -5 6 -19 9 -14 24 -28 33 -31 13 -5
13 -3 -2 9 -11 8 -15 15 -9 15 18 0 36 -27 23 -35 -7 -4 -1 -14 15 -27 20 -15
23 -23 15 -38 -12 -22 -4 -28 28 -25 15 1 21 -3 20 -14 -2 -9 2 -16 9 -16 6 0
15 -4 20 -9 5 -5 2 -6 -6 -1 -9 5 -12 3 -9 -6 3 -8 14 -15 26 -17 18 -3 21 -8
15 -30 -5 -23 -4 -25 9 -14 13 10 18 9 29 -5 8 -10 9 -14 2 -10 -8 5 -11 1
-10 -12 0 -11 5 -17 10 -14 5 3 15 -4 23 -16 8 -12 21 -21 28 -21 7 0 18 -12
25 -26 10 -22 14 -24 27 -13 19 15 47 21 38 8 -3 -5 -11 -9 -18 -9 -7 0 -13
-6 -13 -14 0 -8 6 -12 15 -8 11 4 13 1 7 -9 -6 -11 -5 -11 5 -2 10 9 19 4 42
-28 15 -21 34 -39 41 -39 6 0 3 7 -7 15 -11 8 -15 15 -9 15 17 0 45 -38 38
-52 -3 -7 0 -5 8 5 12 14 16 15 26 4 6 -8 7 -17 3 -21 -4 -4 -2 -7 3 -6 20 4
35 0 35 -10 0 -12 33 -45 99 -102 l43 -37 -36 -32 c-20 -17 -49 -41 -64 -52
-34 -27 -42 -39 -35 -51 3 -5 1 -6 -6 -2 -6 4 -9 12 -5 17 3 6 -3 5 -15 -3
-20 -12 -20 -14 -4 -25 9 -7 12 -13 6 -13 -7 0 -14 4 -18 9 -3 6 -15 8 -26 6
-13 -3 -19 0 -16 8 2 7 9 13 15 13 7 1 15 2 18 3 3 0 -4 10 -17 22 -13 11 -17
17 -9 13 11 -5 12 -4 5 4 -6 6 -20 13 -33 15 -12 2 -32 13 -45 25 -13 12 -27
19 -32 15 -4 -5 -5 -2 -1 5 5 9 1 15 -13 19 -11 3 -18 9 -15 14 3 5 -2 9 -11
9 -23 0 -100 82 -181 192 -38 52 -74 103 -81 113 -76 125 -104 175 -147 260
-55 107 -97 200 -100 219 -1 6 -11 36 -23 66 -28 70 -80 253 -88 305 -13 97
-15 126 -8 122 5 -3 13 6 20 19 6 13 7 24 2 24 -5 0 -12 -7 -15 -15 -4 -8 -11
-15 -16 -15 -6 0 -7 7 -4 16 3 9 2 12 -5 8 -6 -3 -10 1 -9 12 1 11 1 21 0 24
-8 23 -4 39 18 60 16 16 20 18 12 5 -14 -20 -14 -20 7 -2 12 11 26 16 31 13 5
-3 9 1 9 9 0 17 -13 20 -22 5 -9 -15 -24 -2 -22 20 1 10 5 16 10 13 4 -3 18 3
29 14 12 10 18 12 13 4 -6 -11 -4 -13 7 -8 9 3 20 1 26 -5 7 -7 10 -6 8 5 -1
9 -6 20 -11 24 -4 4 -5 2 0 -6 5 -10 4 -12 -3 -7 -8 5 -9 13 -2 25 5 10 6 22
2 26 -4 5 -2 5 5 1 7 -4 10 -13 6 -21 -9 -25 11 -16 32 13 18 26 18 26 0 12
-18 -14 -18 -14 0 12 20 26 20 26 41 7 11 -10 25 -19 31 -19z m4098 20 c3 -5
1 -10 -4 -10 -6 0 -11 5 -11 10 0 6 2 10 4 10 3 0 8 -4 11 -10z m601 -81 c-9
-13 -16 -19 -16 -13 0 5 5 15 12 22 9 9 7 17 -7 34 l-19 23 23 -22 c22 -20 23
-22 7 -44z m-3250 42 c-3 -5 1 -12 10 -15 13 -5 14 -9 4 -21 -7 -9 -10 -19 -6
-22 4 -4 11 -1 16 7 7 12 11 10 18 -10 7 -19 5 -28 -7 -37 -14 -11 -14 -12 0
-13 10 0 15 -8 15 -22 -1 -17 5 -24 22 -26 20 -3 33 -22 14 -22 -4 0 -8 -9 -9
-20 -1 -11 3 -20 8 -20 6 0 6 -7 0 -19 -6 -10 -9 -20 -7 -22 2 -2 6 -17 10
-34 5 -23 -1 -17 -25 25 -30 52 -92 190 -84 190 1 0 -1 16 -5 35 -6 28 -4 37
9 45 20 12 24 12 17 1z m-878 -108 c-1 -5 3 -18 10 -31 10 -18 10 -22 0 -20
-7 2 -12 -3 -10 -10 1 -8 -2 -11 -9 -7 -8 5 -8 10 0 18 16 16 13 31 -3 18 -12
-10 -14 -9 -11 6 2 10 4 21 4 26 1 4 6 7 11 7 6 0 9 -3 8 -7z m-673 -51 c-3
-3 -11 0 -18 7 -9 10 -8 11 6 5 10 -3 15 -9 12 -12z m1260 -14 c16 -78 110
-267 177 -356 53 -70 185 -212 191 -206 6 6 45 -40 49 -56 1 -9 -1 -15 -7 -15
-5 0 -9 3 -7 8 1 4 -5 7 -13 7 -8 0 -15 8 -16 18 0 10 -6 4 -15 -15 -15 -36
-35 -45 -27 -12 5 17 2 19 -21 13 -16 -4 -26 -2 -26 5 0 6 -7 8 -15 5 -8 -4
-12 -10 -9 -15 6 -10 -17 -12 -40 -3 -9 3 -13 10 -10 15 3 5 -2 9 -10 9 -9 0
-16 4 -16 9 0 13 -29 41 -42 41 -6 0 -3 -9 6 -19 25 -27 -3 -22 -29 5 -28 29
-31 48 -6 34 14 -7 22 -7 27 2 4 6 3 8 -4 4 -16 -10 -25 13 -12 29 10 12 9 15
-4 15 -9 0 -16 -5 -16 -12 0 -6 -3 -8 -7 -5 -3 4 -13 1 -22 -6 -14 -10 -14
-10 -3 5 11 13 11 18 0 25 -8 4 -14 24 -14 43 0 26 -4 34 -16 32 -9 -1 -18 5
-22 13 -3 9 -10 14 -15 11 -15 -10 -31 18 -19 34 8 12 9 11 4 -4 -6 -16 -4
-17 9 -6 15 12 15 14 0 22 -8 5 -13 13 -10 18 6 10 -31 24 -43 16 -5 -3 -17 1
-27 8 -14 10 -15 15 -5 21 9 5 11 4 6 -3 -4 -7 -5 -12 -2 -12 3 0 10 10 17 21
7 13 7 19 1 15 -6 -3 -13 -2 -17 4 -3 5 -11 10 -16 10 -6 0 -8 -4 -4 -9 3 -5
0 -13 -6 -17 -9 -5 -10 1 -5 20 4 18 2 26 -6 26 -9 0 -9 3 2 9 8 6 17 8 21 5
4 -2 10 0 14 6 3 5 -1 10 -9 10 -8 0 -18 5 -21 10 -8 13 12 40 29 40 7 0 6 -3
-2 -8 -9 -7 -8 -13 8 -27 12 -11 20 -13 20 -6 0 7 5 9 10 6 11 -7 13 5 10 43
-1 15 7 30 20 39 13 9 18 18 12 22 -6 3 -12 22 -14 41 -1 19 -10 38 -18 42
-11 5 -9 7 7 7 16 1 23 -7 28 -31z m3445 -20 c0 -5 -5 -6 -12 -2 -8 5 -9 2 -5
-9 7 -19 -8 -23 -19 -6 -3 6 -1 15 6 19 8 5 9 13 4 21 -6 12 -5 12 9 0 9 -7
17 -18 17 -23z m-4753 -53 c0 -8 -4 -12 -9 -9 -5 3 -6 10 -3 15 9 13 12 11 12
-6z m1248 -5 c3 -5 -1 -10 -9 -10 -9 0 -16 5 -16 10 0 6 4 10 9 10 6 0 13 -4
16 -10z m498 -105 c-5 -13 -23 -22 -23 -11 0 15 14 35 21 31 4 -3 6 -12 2 -20z
m1397 -35 c0 -5 -4 -10 -10 -10 -5 0 -10 5 -10 10 0 6 5 10 10 10 6 0 10 -4
10 -10z m-1366 -26 c3 -8 2 -12 -4 -9 -6 3 -10 10 -10 16 0 14 7 11 14 -7z
m1290 -43 c8 -12 -4 -41 -16 -41 -6 0 -8 9 -5 20 3 10 0 21 -7 24 -6 2 -3 5 6
5 9 1 19 -3 22 -8z m-35 -57 c-16 -19 -26 -17 -39 7 -9 15 -8 24 1 36 12 13
15 13 31 -7 14 -17 16 -26 7 -36z m-1746 31 c4 -8 2 -17 -3 -20 -6 -4 -10 -4
-10 -1 0 2 -3 11 -6 20 -3 9 -2 16 4 16 5 0 12 -7 15 -15z m-628 -55 c3 -6 -1
-7 -9 -4 -18 7 -21 14 -7 14 6 0 13 -4 16 -10z m2286 -12 c10 -18 8 -24 -12
-39 -28 -21 -49 -14 -49 15 1 20 1 20 15 2 12 -16 17 -17 30 -6 11 9 13 16 5
24 -10 10 -14 26 -5 26 2 0 9 -10 16 -22z m42 7 c1 -5 -6 -11 -15 -13 -11 -2
-18 3 -18 13 0 17 30 18 33 0z m436 -14 c9 -6 10 -11 2 -15 -6 -4 -11 -2 -11
5 0 8 -4 8 -15 -1 -8 -7 -13 -16 -10 -19 2 -4 -2 -8 -10 -8 -10 0 -10 5 3 23
19 26 22 27 41 15z m1455 -28 c5 -11 2 -14 -10 -9 -8 3 -20 6 -25 6 -18 0 -9
16 10 17 11 1 22 -5 25 -14z m-2010 -9 c21 -20 21 -21 -11 -37 -34 -17 -59
-12 -42 9 13 16 33 19 24 4 -3 -5 -1 -10 4 -10 15 0 14 23 -1 38 -8 8 -9 12
-1 12 6 0 19 -7 27 -16z m516 -36 c0 -5 -6 -8 -12 -5 -7 2 -21 -2 -31 -11 -23
-20 -30 -11 -12 15 15 21 55 22 55 1z m-592 -29 c-19 -13 -28 -11 -28 5 0 9 7
12 21 9 16 -4 17 -8 7 -14z m2022 -20 c0 -5 7 -9 16 -9 8 0 13 -4 9 -10 -8
-13 -28 -4 -43 20 -10 16 -9 18 3 14 8 -4 15 -10 15 -15z m-1532 -31 c9 -9 5
-15 -18 -24 -17 -7 -30 -21 -30 -30 0 -14 -2 -14 -16 -3 -14 11 -15 10 -12 -6
2 -13 -5 -21 -29 -27 -18 -5 -33 -13 -33 -18 0 -6 -8 -10 -17 -10 -9 0 -25 -7
-35 -17 -10 -9 -18 -11 -18 -5 0 6 17 21 38 33 41 25 135 100 140 112 5 10 16
9 30 -5z m-1808 -108 c0 -5 -2 -10 -4 -10 -3 0 -8 5 -11 10 -3 6 -1 10 4 10 6
0 11 -4 11 -10z m315 -1 c4 -6 5 -12 2 -15 -7 -7 -37 7 -37 17 0 13 27 11 35
-2z m-845 -81 c0 -7 -5 -6 -15 2 -8 7 -15 9 -15 6 0 -4 -5 -4 -10 -1 -6 4 -8
11 -5 16 8 11 45 -7 45 -23z m-655 12 c-3 -5 -12 -10 -18 -10 -7 0 -6 4 3 10
19 12 23 12 15 0z m655 -35 c0 -7 -30 -13 -34 -7 -3 4 4 9 15 9 10 1 19 0 19
-2z m7 -110 c0 -8 -4 -12 -9 -9 -5 3 -6 10 -3 15 9 13 12 11 12 -6z m40 -37
c0 -7 2 -18 4 -24 2 -7 0 -11 -6 -10 -5 0 -9 7 -7 14 2 10 -1 11 -16 3 -14 -7
-19 -7 -19 4 0 7 6 11 13 8 6 -2 15 0 19 6 8 14 12 14 12 -1z m2911 -102 c1
-19 -17 -42 -80 -101 -45 -42 -93 -84 -107 -93 -14 -9 -39 -29 -56 -45 -16
-15 -45 -35 -62 -44 -18 -8 -33 -19 -33 -24 0 -5 -7 -9 -15 -9 -8 0 -15 -5
-15 -12 0 -6 -3 -8 -6 -5 -4 3 -18 -3 -32 -13 -13 -11 -31 -20 -38 -20 -8 0
-14 -6 -14 -13 0 -7 -10 -13 -22 -14 -11 -1 -24 -6 -27 -11 -5 -8 -71 -41 -91
-46 -3 -1 -14 -7 -25 -12 -11 -6 -30 -10 -42 -9 -12 1 -21 -2 -20 -6 1 -4 -1
-6 -4 -6 -4 1 -16 -7 -28 -17 -20 -18 -30 -11 -13 10 4 5 -1 1 -10 -9 -10 -11
-18 -16 -18 -11 0 4 -7 -1 -16 -12 -8 -10 -12 -12 -8 -4 7 12 5 13 -8 3 -8 -7
-18 -10 -21 -6 -4 3 -13 0 -22 -7 -8 -7 -15 -9 -15 -4 0 5 -4 3 -9 -5 -5 -8
-17 -16 -25 -17 -9 -1 -14 2 -11 6 3 5 1 11 -4 14 -5 3 -12 -1 -15 -10 -3 -8
-11 -12 -17 -8 -7 4 -9 3 -5 -4 3 -6 2 -13 -4 -17 -5 -3 -10 1 -10 11 0 13 -4
12 -21 -7 -11 -13 -18 -18 -14 -11 3 6 1 12 -6 12 -7 0 -21 8 -31 17 -15 14
-19 14 -16 3 2 -9 -3 -14 -12 -12 -31 7 -35 7 -32 -6 1 -8 -2 -11 -8 -7 -6 4
-16 2 -23 -3 -8 -7 -18 -6 -32 4 -19 14 -19 15 8 10 16 -3 25 -1 22 5 -4 5
-11 7 -16 4 -5 -4 -9 -2 -9 4 0 7 -8 7 -22 2 -13 -5 -22 -16 -22 -25 2 -13 -1
-14 -12 -5 -11 9 -14 9 -14 0 0 -7 -5 -9 -12 -5 -9 5 -9 2 1 -9 15 -19 15 -19
-19 -22 -14 -1 -32 -5 -41 -9 -9 -4 -20 -6 -25 -5 -5 1 -13 0 -19 -1 -5 -2
-28 -3 -50 -4 -31 -1 -41 3 -41 15 0 13 4 14 25 3 33 -17 43 -6 45 50 1 24 4
48 8 52 4 3 5 -5 2 -20 -3 -20 -1 -24 11 -20 8 4 15 10 15 15 0 5 3 8 8 7 4
-1 16 3 27 9 11 6 25 12 30 13 26 6 33 13 28 26 -3 8 -10 14 -15 14 -6 0 -7
-7 -4 -16 4 -10 2 -13 -6 -8 -6 4 -8 3 -5 -3 3 -5 0 -10 -8 -11 -8 -1 -22 -3
-30 -4 -8 -1 -12 -5 -9 -10 3 -4 -2 -5 -12 -1 -15 5 -14 7 2 17 11 5 25 10 33
11 8 0 16 6 19 14 3 8 0 11 -6 7 -9 -5 -9 1 -3 33 1 2 8 -2 16 -9 13 -11 18
-11 28 0 10 10 9 11 -3 5 -8 -5 -12 -4 -7 0 4 5 18 10 30 12 16 2 18 0 8 -6
-7 -5 -9 -11 -5 -14 5 -3 18 7 29 22 12 17 14 22 3 13 -13 -10 -17 -10 -22 3
-4 10 1 15 14 15 12 0 20 7 20 16 0 14 3 14 15 4 10 -8 15 -9 15 -2 0 7 16 11
35 10 27 -1 32 -4 24 -14 -6 -7 -18 -10 -27 -7 -9 3 -14 2 -9 -2 11 -13 70
-14 86 -1 12 9 13 8 6 -3 -6 -11 -4 -13 8 -8 10 4 17 1 17 -6 0 -8 4 -7 9 3 6
8 7 18 5 22 -3 4 2 5 10 2 8 -3 17 -12 20 -19 5 -13 13 -13 69 1 12 3 27 6 34
8 7 1 16 6 20 11 4 4 1 5 -7 1 -8 -4 -4 1 10 12 24 20 46 20 34 1 -3 -5 -10
-7 -15 -4 -5 4 -9 1 -9 -4 0 -15 11 -14 32 5 15 14 20 15 35 3 9 -8 14 -9 10
-3 -8 14 18 38 33 29 5 -3 13 0 16 8 6 16 20 17 43 3 10 -6 12 -5 7 2 -4 7 -2
12 4 12 6 0 8 5 5 10 -3 6 -1 10 5 10 6 0 9 4 5 9 -3 6 4 8 16 6 13 -3 29 1
38 8 12 10 13 9 6 -2 -5 -8 7 -4 25 9 18 13 30 17 25 9 -7 -12 -6 -12 7 -1 9
7 22 11 29 10 9 -2 13 4 11 15 -4 21 14 23 22 1 3 -8 10 -12 16 -9 6 4 4 15
-6 31 -9 13 -14 24 -10 24 13 0 21 -5 18 -12 -1 -5 2 -8 7 -8 11 0 25 20 26
35 1 6 7 8 15 7 41 -10 50 -10 45 -1 -4 5 -12 6 -18 2 -7 -3 -3 3 7 15 11 12
24 22 29 22 6 0 2 -7 -9 -15 -10 -8 -14 -15 -7 -15 6 0 15 5 18 10 4 6 10 8
14 6 4 -3 7 5 6 17 -2 12 -8 21 -15 19 -11 -3 -11 0 0 12 14 18 24 21 14 5 -4
-7 -1 -10 7 -7 8 3 13 12 11 19 -2 8 0 10 4 6 11 -11 14 -38 3 -31 -5 3 -9 0
-9 -6 0 -21 25 -4 26 18 2 35 3 35 24 11 l19 -24 -4 25 c-3 17 2 31 18 43 12
10 16 16 10 12 -8 -4 -13 0 -13 9 0 18 43 32 62 20 7 -5 22 -9 33 -9 11 0 26
-4 34 -9 10 -7 12 -6 6 4 -6 10 -4 12 8 7 9 -3 19 -1 23 5 4 6 3 8 -4 4 -6 -3
-14 -1 -18 5 -4 7 -3 9 4 5 6 -3 13 -2 17 4 9 14 10 13 13 -14z m-54 6 c3 -5
-1 -9 -9 -9 -8 0 -12 4 -9 9 3 4 7 8 9 8 2 0 6 -4 9 -8z m-2424 -54 c0 -6 -6
-5 -15 2 -8 7 -15 14 -15 16 0 2 7 1 15 -2 8 -4 15 -11 15 -16z m2280 18 c0
-2 -8 -10 -17 -17 -16 -13 -17 -12 -4 4 13 16 21 21 21 13z m605 -5 c3 -5 2
-12 -3 -15 -5 -3 -9 1 -9 9 0 17 3 19 12 6z m-2966 -14 c8 -10 7 -14 -4 -14
-8 0 -12 4 -9 8 2 4 -2 10 -8 12 -8 4 -9 6 -2 6 6 1 17 -5 23 -12z m2959 -35
c-6 -7 -7 -12 -2 -11 23 4 35 -2 27 -13 -10 -17 -14 -42 -5 -33 4 4 7 12 7 18
0 5 6 12 14 15 8 3 11 0 8 -6 -4 -5 0 -15 7 -21 11 -9 14 -9 12 1 -5 28 -27
57 -40 52 -11 -4 -13 0 -9 16 5 19 7 20 15 6 11 -19 38 -21 58 -3 8 6 6 2 -4
-10 -12 -14 -15 -23 -8 -24 26 -3 31 -4 37 -10 3 -4 1 -10 -6 -15 -8 -5 -10
-3 -4 6 6 9 4 11 -5 5 -10 -6 -7 -13 11 -27 13 -11 19 -17 12 -14 -14 8 -27
-10 -14 -18 5 -4 13 -1 16 5 4 5 13 8 21 5 7 -3 16 0 20 6 4 6 3 8 -4 4 -6 -3
-13 -2 -16 3 -4 5 2 8 11 6 10 -1 25 1 34 6 9 5 19 6 22 2 12 -12 -15 -47
-200 -260 -47 -55 -67 -64 -77 -37 -8 22 -8 36 2 30 10 -6 9 35 -1 52 -5 7
-14 9 -20 6 -8 -4 -7 -2 1 7 11 11 14 12 21 0 6 -9 10 -5 13 14 4 19 2 25 -8
21 -8 -3 -11 0 -7 10 3 7 11 14 19 14 8 0 11 6 8 15 -4 8 -10 13 -14 10 -5 -3
-11 -1 -15 5 -3 5 1 10 9 10 9 0 16 7 16 15 0 13 -4 14 -21 5 -11 -7 -23 -9
-27 -6 -3 3 0 6 7 6 7 0 9 5 5 12 -4 6 -3 8 4 4 6 -3 13 -2 17 4 3 6 -3 10
-16 10 -17 0 -19 3 -11 13 9 10 8 19 -3 33 -12 18 -11 23 8 40 12 10 25 18 29
16 4 -1 4 6 1 15 -4 11 -3 14 5 9 7 -4 12 -2 12 3 0 8 7 7 19 -1 15 -9 17 -15
9 -26z m-2668 -192 c0 -5 -5 -10 -11 -10 -5 0 -7 5 -4 10 3 6 8 10 11 10 2 0
4 -4 4 -10z m1588 -65 c-3 -3 -9 2 -12 12 -6 14 -5 15 5 6 7 -7 10 -15 7 -18z
m-44 -17 c-3 -4 -11 -5 -19 -1 -21 7 -19 12 4 10 11 0 18 -5 15 -9z m-334 -4
c0 -8 -19 -13 -24 -6 -3 5 1 9 9 9 8 0 15 -2 15 -3z m161 -21 c8 -6 22 -9 32
-7 20 3 14 -8 -6 -12 -7 -2 -22 -5 -35 -8 -13 -3 -20 -1 -16 5 3 5 1 16 -6 24
-9 10 -8 13 3 11 8 -1 21 -7 28 -13z m-127 -11 c2 -4 -5 -9 -17 -9 -17 -2 -19
0 -7 7 18 12 18 12 24 2z m-2763 -29 c13 -15 12 -15 -7 -5 -12 6 -25 8 -29 4
-5 -4 -5 -1 -1 6 10 16 21 15 37 -5z m4099 -37 c0 -8 -4 -17 -8 -20 -4 -2 -8
4 -8 15 0 10 4 19 8 19 4 0 8 -6 8 -14z m-2260 -100 c0 -3 -4 -8 -10 -11 -5
-3 -10 -1 -10 4 0 6 5 11 10 11 6 0 10 -2 10 -4z m884 -36 c-6 -6 -10 -3 -10
10 0 13 4 16 10 10 7 -7 7 -13 0 -20z m56 8 c0 -6 -3 -8 -7 -5 -3 4 -13 1 -21
-6 -13 -11 -14 -9 -2 10 14 22 30 22 30 1z m-356 4 c3 -5 -1 -9 -9 -9 -8 0
-12 4 -9 9 3 4 7 8 9 8 2 0 6 -4 9 -8z m2100 -57 c-4 -8 -11 -12 -17 -8 -8 5
-7 8 1 11 7 2 9 9 6 14 -4 7 -2 8 4 4 6 -4 9 -13 6 -21z m-120 -106 c-3 -5
-10 -7 -15 -3 -5 3 -7 10 -3 15 3 5 10 7 15 3 5 -3 7 -10 3 -15z m-2820 -70
c30 -11 94 -31 141 -44 47 -13 93 -29 101 -35 9 -9 14 -9 14 -2 0 6 7 9 15 7
49 -16 48 -15 35 -30 -10 -12 -9 -15 9 -15 11 0 20 3 18 8 -1 4 3 8 8 10 6 1
10 -6 10 -15 0 -11 -8 -18 -20 -19 -40 -2 -46 -4 -41 -13 4 -5 3 -16 0 -25 -5
-13 -9 -14 -20 -5 -11 9 -14 6 -14 -15 0 -16 -6 -26 -15 -26 -8 0 -12 -6 -9
-14 5 -14 -24 -31 -35 -20 -3 4 0 9 7 11 6 3 12 12 12 21 0 8 7 24 17 34 18
20 4 25 -16 6 -10 -11 -11 -9 -6 7 5 15 4 16 -3 6 -5 -7 -14 -11 -19 -8 -17
11 -36 -10 -28 -29 7 -17 8 -16 15 6 6 20 9 22 14 9 4 -8 0 -29 -9 -45 -13
-25 -15 -26 -15 -8 0 12 -7 25 -16 28 -10 4 -14 14 -11 26 6 23 -11 27 -19 5
-4 -8 -1 -22 6 -31 10 -11 10 -18 2 -26 -7 -7 -12 -16 -12 -21 0 -5 7 -1 16 8
9 9 19 13 23 9 3 -4 0 -9 -6 -11 -7 -3 -13 -11 -13 -19 0 -15 -21 -15 -32 0
-4 6 -12 5 -20 -2 -16 -13 -98 4 -98 20 0 5 -5 6 -10 3 -12 -7 -89 16 -170 52
-182 81 -238 112 -197 110 35 -1 45 4 40 21 -2 10 2 24 11 31 12 10 14 7 12
-22 -2 -19 -6 -39 -10 -46 -4 -6 -3 -11 3 -11 5 0 14 6 18 13 4 7 19 21 33 30
13 9 19 17 13 17 -6 0 -14 7 -17 16 -4 12 -1 14 14 9 14 -5 20 -2 20 9 0 9 5
16 11 16 5 0 7 -6 3 -12 -6 -10 -4 -10 8 0 14 11 18 10 27 -6 6 -11 8 -22 4
-25 -3 -4 2 -9 11 -13 9 -3 16 -13 16 -22 0 -8 3 -12 7 -9 3 4 1 18 -6 31 -11
20 -10 28 4 50 14 20 21 24 31 15 7 -6 13 -14 12 -17 -4 -32 6 -32 33 1 17 20
32 37 34 37 2 0 29 -9 59 -21z m-461 -59 c3 -11 1 -18 -4 -14 -5 3 -9 12 -9
20 0 20 7 17 13 -6z m167 6 c0 -3 -4 -8 -10 -11 -5 -3 -10 -1 -10 4 0 6 5 11
10 11 6 0 10 -2 10 -4z m-646 -55 c4 -5 -1 -8 -10 -7 -9 1 -21 10 -26 20 -9
16 -7 16 10 7 12 -6 23 -15 26 -20z m48 -35 c7 4 8 2 4 -5 -9 -14 -36 3 -36
23 0 6 5 3 11 -7 6 -9 15 -14 21 -11z m1811 5 c-3 -12 -1 -11 11 3 14 17 16
17 31 2 20 -19 32 -21 16 -2 -9 11 -5 13 18 12 16 -1 33 -5 38 -10 5 -5 2 -6
-6 -1 -10 6 -12 4 -7 -4 5 -7 14 -10 22 -7 8 3 15 1 15 -4 1 -6 2 -14 3 -19 2
-17 14 -22 22 -10 5 8 3 10 -6 4 -9 -5 -11 -4 -6 4 4 6 12 9 17 5 5 -3 7 -10
4 -15 -6 -8 -1 -10 32 -13 7 -1 13 -6 14 -11 1 -6 10 -16 20 -23 24 -16 62
-24 54 -11 -4 5 -11 6 -17 3 -7 -4 -8 -2 -4 4 10 17 34 3 41 -25 5 -21 8 -23
21 -12 8 7 13 18 10 26 -4 8 -1 11 5 8 6 -4 8 -13 5 -21 -6 -15 6 -19 18 -7
10 11 44 14 50 4 3 -4 -6 -7 -19 -5 -14 1 -23 -2 -19 -7 3 -5 9 -7 14 -4 4 3
13 -2 20 -10 9 -11 16 -12 25 -5 8 7 12 5 12 -5 0 -8 -4 -12 -8 -9 -4 2 -10 0
-13 -5 -6 -10 -68 -23 -122 -26 -17 -1 -37 -6 -44 -10 -8 -5 -11 -4 -7 1 10
17 -12 39 -40 40 -19 0 -28 5 -27 16 1 10 -6 15 -20 13 -30 -2 -39 5 -25 21 8
10 8 14 0 14 -6 0 -10 5 -8 11 1 6 -10 13 -25 16 -18 2 -28 -1 -28 -9 0 -8 -5
-6 -11 5 -6 9 -15 14 -21 11 -7 -4 -8 -2 -4 5 6 9 12 9 24 0 10 -8 9 -4 -3 9
-11 12 -31 23 -44 25 -28 4 -61 44 -37 44 8 0 12 -7 9 -16z m-533 -25 c0 -5
-7 -3 -15 4 -8 7 -12 17 -9 22 7 10 24 -9 24 -26z m-1216 -27 c-3 -5 -10 -7
-15 -3 -5 3 -7 10 -3 15 3 5 10 7 15 3 5 -3 7 -10 3 -15z m-41 -66 c-3 -7 -6
-13 -8 -13 -2 0 -5 6 -8 13 -3 8 1 14 8 14 7 0 11 -6 8 -14z m344 -106 c6 2
14 0 17 -5 3 -5 -8 -9 -25 -10 -16 0 -27 4 -24 9 4 5 1 9 -4 9 -6 0 -11 5 -11
12 0 7 6 6 18 -4 9 -9 22 -13 29 -11z m59 -32 c14 -13 13 -15 -8 -11 -13 3
-24 5 -26 5 -5 1 9 21 14 21 3 0 12 -7 20 -15z"/>
<path d="M3584 4819 c-9 -16 2 -22 21 -11 15 8 16 10 1 15 -8 3 -18 2 -22 -4z"/>
<path d="M3540 4806 c0 -2 8 -10 18 -17 15 -13 16 -12 3 4 -13 16 -21 21 -21
13z"/>
<path d="M3626 4655 c-4 -13 -2 -14 14 -5 23 13 26 20 6 20 -8 0 -16 -7 -20
-15z"/>
<path d="M3735 4650 c4 -6 11 -8 16 -5 14 9 11 15 -7 15 -8 0 -12 -5 -9 -10z"/>
<path d="M4155 4300 c9 -10 14 -23 11 -29 -4 -5 -2 -12 3 -15 14 -9 24 13 13
27 -6 7 -10 16 -9 21 1 5 -6 10 -16 12 -18 2 -18 1 -2 -16z"/>
<path d="M4215 4248 c1 -13 6 -21 11 -19 10 3 7 21 -5 34 -4 4 -7 -3 -6 -15z"/>
<path d="M4370 4031 c0 -6 4 -13 10 -16 6 -3 7 1 4 9 -7 18 -14 21 -14 7z"/>
<path d="M4546 3901 c-4 -5 -2 -12 3 -15 5 -4 12 -2 15 3 4 5 2 12 -3 15 -5 4
-12 2 -15 -3z"/>
<path d="M4559 3863 c-7 -10 -9 -15 -5 -11 5 4 16 2 25 -5 14 -10 14 -10 4 4
-7 9 -10 19 -6 22 3 4 4 7 1 7 -3 0 -12 -8 -19 -17z"/>
<path d="M4604 3872 c4 -3 14 -7 22 -8 9 -1 13 0 10 4 -4 3 -14 7 -22 8 -9 1
-13 0 -10 -4z"/>
<path d="M4661 3836 c-8 -10 -9 -16 -1 -21 5 -3 10 -5 11 -3 4 18 7 38 4 38
-1 0 -8 -6 -14 -14z"/>
<path d="M4774 3803 c2 -10 6 -17 10 -16 15 3 16 11 2 22 -12 10 -14 9 -12 -6z"/>
<path d="M4686 3794 c-6 -15 -4 -15 11 -3 10 7 20 15 22 16 2 2 -3 3 -11 3 -9
0 -19 -7 -22 -16z"/>
<path d="M2805 4531 c-3 -5 -2 -12 3 -15 5 -3 9 1 9 9 0 17 -3 19 -12 6z"/>
<path d="M3123 4403 c0 -9 4 -10 14 -2 7 6 13 12 13 14 0 1 -6 2 -13 2 -8 0
-14 -6 -14 -14z"/>
<path d="M3720 4016 c0 -2 8 -10 18 -17 15 -13 16 -12 3 4 -13 16 -21 21 -21
13z"/>
<path d="M3967 3727 c-3 -8 3 -14 15 -14 16 -2 17 1 8 13 -15 17 -17 17 -23 1z"/>
<path d="M4127 3413 c-7 -11 32 -57 41 -49 4 4 -1 12 -11 17 -9 6 -15 14 -12
19 3 5 1 11 -4 14 -5 4 -12 3 -14 -1z"/>
<path d="M4386 3158 c3 -5 10 -6 15 -3 13 9 11 12 -6 12 -8 0 -12 -4 -9 -9z"/>
<path d="M4356 2861 c-4 -5 -2 -12 3 -15 5 -4 12 -2 15 3 4 5 2 12 -3 15 -5 4
-12 2 -15 -3z"/>
<path d="M4508 2803 c7 -3 16 -2 19 1 4 3 -2 6 -13 5 -11 0 -14 -3 -6 -6z"/>
<path d="M4396 2358 c3 -4 12 -8 20 -8 8 0 14 4 14 8 0 4 -9 8 -19 8 -11 0
-17 -4 -15 -8z"/>
<path d="M4420 2238 c0 -20 1 -21 20 -3 11 10 20 19 20 19 0 1 -9 2 -20 3 -14
1 -20 -4 -20 -19z"/>
<path d="M5040 4075 c7 -8 16 -12 21 -9 13 8 1 24 -18 24 -13 0 -13 -3 -3 -15z"/>
<path d="M467 3786 c-6 -16 2 -28 14 -20 12 7 11 34 0 34 -5 0 -11 -6 -14 -14z"/>
<path d="M513 3778 c-6 -7 -13 -21 -16 -31 -4 -11 -12 -15 -19 -11 -10 6 -10
4 0 -8 10 -12 20 -14 42 -8 16 4 32 5 36 2 4 -4 4 -1 -1 6 -4 8 -15 12 -24 9
-18 -4 -22 17 -7 41 10 16 1 16 -11 0z"/>
<path d="M4695 3541 c-3 -5 -2 -12 3 -15 5 -3 9 1 9 9 0 17 -3 19 -12 6z"/>
<path d="M4740 3420 c-12 -7 -12 -11 -2 -20 6 -5 10 -7 7 -4 -3 4 0 13 6 21
13 15 10 16 -11 3z"/>
<path d="M4985 3109 c-10 -15 3 -25 16 -12 7 7 7 13 1 17 -6 3 -14 1 -17 -5z"/>
<path d="M5045 3071 c-3 -5 -2 -12 3 -15 5 -3 9 1 9 9 0 17 -3 19 -12 6z"/>
<path d="M5062 3014 c-1 -13 0 -24 2 -24 7 0 14 40 7 44 -4 3 -8 -6 -9 -20z"/>
<path d="M3566 3272 c-3 -6 0 -15 7 -21 10 -8 19 -7 33 5 10 8 13 13 6 9 -7
-4 -19 -2 -27 5 -8 6 -16 7 -19 2z"/>
<path d="M3649 3204 c-18 -22 -20 -42 -3 -40 7 1 17 6 21 10 4 4 4 7 -2 6 -24
-5 -27 1 -10 20 10 11 16 20 13 20 -3 0 -12 -7 -19 -16z"/>
<path d="M3729 2949 c-7 -4 -6 -8 3 -11 8 -3 22 0 32 8 17 12 17 13 -3 11 -12
-1 -27 -4 -32 -8z"/>
<path d="M3753 2889 c11 -17 14 -16 20 7 1 4 -6 8 -15 10 -14 2 -15 -1 -5 -17z"/>
<path d="M758 2243 c-4 -14 0 -19 13 -18 10 1 22 5 26 10 5 4 3 5 -4 1 -6 -3
-16 1 -21 10 -8 15 -10 14 -14 -3z"/>
<path d="M780 2190 c0 -6 -4 -9 -8 -6 -5 3 -9 -1 -9 -9 0 -12 3 -12 16 -3 9 7
17 13 19 14 2 1 -1 5 -7 9 -6 3 -11 1 -11 -5z"/>
<path d="M843 1996 c-3 -5 -2 -6 3 -3 14 8 35 -7 38 -27 1 -9 5 -16 9 -16 4 0
9 0 12 0 3 0 -1 10 -10 23 -8 13 -13 26 -11 28 3 3 -4 5 -15 5 -11 0 -23 -5
-26 -10z"/>
<path d="M1280 1412 c0 -7 -1 -15 -2 -19 -2 -3 5 -7 15 -9 15 -2 16 0 5 14 -7
9 -14 19 -15 21 -2 2 -3 -1 -3 -7z"/>
<path d="M1296 1352 c-3 -5 1 -9 9 -9 8 0 12 4 9 9 -3 4 -7 8 -9 8 -2 0 -6 -4
-9 -8z"/>
<path d="M1382 1165 c3 -3 16 -8 28 -10 12 -2 20 -1 16 2 -4 4 -16 8 -28 10
-12 2 -19 1 -16 -2z"/>
<path d="M1405 1071 c-3 -5 -2 -12 3 -15 5 -3 9 1 9 9 0 17 -3 19 -12 6z"/>
<path d="M1656 948 c3 -4 9 -8 15 -8 5 0 9 4 9 8 0 5 -7 9 -15 9 -8 0 -12 -4
-9 -9z"/>
<path d="M190 2345 c0 -7 30 -13 34 -7 3 4 -4 9 -15 9 -10 1 -19 0 -19 -2z"/>
<path d="M1499 1787 c7 -7 14 -8 21 -1 6 6 2 10 -12 11 -16 2 -18 -1 -9 -10z"/>
<path d="M1700 1687 c0 -11 -5 -14 -17 -10 -16 6 -16 5 -4 -11 8 -9 17 -13 20
-8 3 5 12 11 20 13 10 4 10 7 -3 18 -14 11 -16 11 -16 -2z"/>
<path d="M1652 1649 c2 -6 8 -10 13 -10 5 0 11 4 13 10 2 6 -4 11 -13 11 -9 0
-15 -5 -13 -11z"/>
<path d="M3656 1047 c3 -10 9 -15 12 -12 3 3 0 11 -7 18 -10 9 -11 8 -5 -6z"/>
<path d="M3425 929 c-4 -6 -5 -12 -2 -15 2 -3 7 2 10 11 7 17 1 20 -8 4z"/>
<path d="M2685 660 c-3 -5 -5 -10 -3 -11 33 -8 38 -7 27 7 -14 17 -16 17 -24
4z"/>
<path d="M4539 1043 c-13 -16 -12 -17 4 -4 9 7 17 15 17 17 0 8 -8 3 -21 -13z"/>
<path d="M4570 1056 c0 -2 7 -7 16 -10 8 -3 12 -2 9 4 -6 10 -25 14 -25 6z"/>
<path d="M1990 320 c0 -5 5 -10 11 -10 5 0 7 5 4 10 -3 6 -8 10 -11 10 -2 0
-4 -4 -4 -10z"/>
<path d="M2070 316 c0 -2 7 -7 16 -10 8 -3 12 -2 9 4 -6 10 -25 14 -25 6z"/>
<path d="M2060 280 c0 -5 5 -10 11 -10 5 0 7 5 4 10 -3 6 -8 10 -11 10 -2 0
-4 -4 -4 -10z"/>
<path d="M1875 240 c-3 -5 1 -10 9 -10 9 0 16 5 16 10 0 6 -4 10 -9 10 -6 0
-13 -4 -16 -10z"/>
<path d="M1820 176 c0 -2 8 -10 18 -17 15 -13 16 -12 3 4 -13 16 -21 21 -21
13z"/>
<path d="M2910 214 c0 -1 6 -7 14 -13 10 -9 15 -8 19 2 3 8 -3 13 -14 13 -11
0 -19 -1 -19 -2z"/>
<path d="M1040 5109 c0 -5 5 -7 10 -4 6 3 10 8 10 11 0 2 -4 4 -10 4 -5 0 -10
-5 -10 -11z"/>
<path d="M2244 5107 c-6 -7 -7 -21 -3 -32 7 -19 8 -19 8 1 1 29 41 40 61 16
14 -16 16 -16 36 4 l21 22 -56 0 c-32 1 -61 -4 -67 -11z"/>
<path d="M2383 5103 c0 -9 7 -13 19 -10 23 7 32 -9 31 -53 -1 -19 1 -25 3 -14
3 14 15 24 34 28 21 4 28 10 24 21 -3 8 -1 15 5 15 6 0 11 -4 11 -10 0 -5 7
-10 16 -10 8 0 13 -4 9 -9 -3 -5 -1 -12 4 -15 5 -4 12 -2 16 4 10 16 28 12 21
-6 -3 -8 -2 -12 3 -9 5 3 12 2 15 -3 3 -5 19 -7 36 -4 30 4 30 4 20 -23 -9
-24 -9 -26 4 -16 8 7 20 10 26 6 12 -7 57 34 53 47 -2 4 3 5 11 2 15 -6 16
-20 1 -44 -8 -13 -7 -13 8 -1 9 7 15 17 12 21 -3 4 2 13 10 20 18 15 20 46 3
56 -6 4 -8 3 -4 -4 3 -6 1 -14 -5 -17 -5 -4 -8 -14 -4 -24 5 -12 4 -13 -6 -4
-10 10 -9 15 1 28 7 8 9 15 4 15 -4 0 -3 5 4 12 8 8 15 8 27 -2 13 -11 15 -10
10 3 -5 12 -28 15 -126 16 -127 2 -126 2 -119 -49 1 -11 -1 -12 -10 -4 -6 6
-13 20 -14 30 -3 19 -26 33 -26 15 0 -6 -5 -11 -11 -11 -5 0 -8 4 -5 9 3 5
-20 9 -52 9 -45 0 -59 -4 -59 -15z m307 -78 c-5 -6 -8 -15 -5 -18 3 -4 2 -5
-2 -2 -4 3 -8 14 -10 25 -2 14 2 18 12 13 11 -4 13 -9 5 -18z"/>
<path d="M2840 5110 c-8 -5 -12 -12 -9 -15 4 -3 12 1 19 10 14 17 11 19 -10 5z"/>
<path d="M2890 5081 c0 -7 -4 -10 -8 -7 -5 3 -9 -1 -9 -7 0 -15 34 -20 42 -7
2 4 -2 13 -10 20 -11 9 -15 9 -15 1z"/>
<path d="M2286 5065 c4 -8 10 -12 15 -9 11 6 2 24 -11 24 -5 0 -7 -7 -4 -15z"/>
<path d="M2355 5070 c-3 -5 3 -10 15 -10 12 0 18 5 15 10 -3 6 -10 10 -15 10
-5 0 -12 -4 -15 -10z"/>
<path d="M2607 5006 c-3 -8 1 -17 9 -20 8 -3 14 1 14 9 0 20 -17 28 -23 11z"/>
<path d="M2570 4990 c0 -5 5 -10 11 -10 5 0 7 5 4 10 -3 6 -8 10 -11 10 -2 0
-4 -4 -4 -10z"/>
<path d="M1755 4981 c-3 -5 -1 -12 4 -15 5 -3 11 1 15 9 6 16 -9 21 -19 6z"/>
<path d="M2595 4950 c3 -5 10 -10 16 -10 5 0 9 5 9 10 0 6 -7 10 -16 10 -8 0
-12 -4 -9 -10z"/>
<path d="M2650 4949 c0 -5 5 -7 10 -4 6 3 10 8 10 11 0 2 -4 4 -10 4 -5 0 -10
-5 -10 -11z"/>
<path d="M2896 4918 c3 -5 10 -6 15 -3 13 9 11 12 -6 12 -8 0 -12 -4 -9 -9z"/>
<path d="M1597 4880 c-3 -11 -1 -23 4 -26 5 -3 9 6 9 20 0 31 -6 34 -13 6z"/>
<path d="M1430 4860 c0 -5 5 -10 11 -10 5 0 7 5 4 10 -3 6 -8 10 -11 10 -2 0
-4 -4 -4 -10z"/>
<path d="M4573 4815 c0 -8 3 -13 5 -10 3 3 12 -1 21 -7 10 -8 9 -4 -3 10 -23
26 -23 26 -23 7z"/>
<path d="M1520 4809 c0 -5 5 -7 10 -4 6 3 10 8 10 11 0 2 -4 4 -10 4 -5 0 -10
-5 -10 -11z"/>
<path d="M1470 4800 c-9 -6 -10 -10 -3 -10 6 0 15 5 18 10 8 12 4 12 -15 0z"/>
<path d="M1380 4786 c0 -2 7 -9 15 -16 9 -7 15 -8 15 -2 0 5 -7 12 -15 16 -8
3 -15 4 -15 2z"/>
<path d="M1431 4774 c0 -11 3 -14 6 -6 3 7 2 16 -1 19 -3 4 -6 -2 -5 -13z"/>
<path d="M1200 4640 c0 -5 5 -10 11 -10 5 0 7 5 4 10 -3 6 -8 10 -11 10 -2 0
-4 -4 -4 -10z"/>
<path d="M4810 4556 c7 -7 13 -7 20 0 6 6 3 10 -10 10 -13 0 -16 -4 -10 -10z"/>
<path d="M60 4081 c0 -7 -5 -9 -12 -5 -7 5 -8 3 -3 -5 5 -9 10 -10 18 -2 6 6
8 14 4 18 -4 3 -7 1 -7 -6z"/>
<path d="M5041 2774 c0 -11 3 -14 6 -6 3 7 2 16 -1 19 -3 4 -6 -2 -5 -13z"/>
<path d="M5074 2722 c-15 -12 -15 -39 1 -52 12 -10 15 -10 15 0 0 7 7 18 15
24 13 10 13 12 -3 23 -10 6 -23 8 -28 5z"/>
<path d="M5015 2410 c-3 -5 1 -10 10 -10 9 0 13 5 10 10 -3 6 -8 10 -10 10 -2
0 -7 -4 -10 -10z"/>
<path d="M4963 2318 c-19 -25 -24 -51 -11 -60 22 -13 29 -9 18 12 -10 19 -6
25 14 21 5 -1 4 4 -2 12 -7 8 -9 17 -5 20 3 4 4 7 1 7 -3 0 -10 -6 -15 -12z"/>
<path d="M4904 2185 c-3 -8 -4 -22 -1 -32 4 -14 5 -13 6 5 0 12 7 22 15 22 23
0 27 16 5 17 -11 1 -22 -4 -25 -12z"/>
<path d="M4995 1910 c-3 -6 1 -7 9 -4 18 7 21 14 7 14 -6 0 -13 -4 -16 -10z"/>
<path d="M4810 1820 c0 -5 5 -10 11 -10 5 0 7 5 4 10 -3 6 -8 10 -11 10 -2 0
-4 -4 -4 -10z"/>
<path d="M4865 1807 c-6 -12 -17 -21 -26 -21 -13 1 -14 -3 -5 -22 6 -12 14
-20 19 -17 5 3 6 8 3 11 -4 3 3 15 13 26 11 12 17 27 13 33 -5 8 -11 5 -17
-10z"/>
<path d="M4761 1731 c-8 -5 -9 -11 -3 -15 5 -3 12 1 16 9 6 17 6 18 -13 6z"/>
<path d="M4807 1724 c6 -15 23 -19 23 -5 0 5 -7 11 -14 14 -10 4 -13 1 -9 -9z"/>
<path d="M5065 1090 c-3 -5 -1 -10 4 -10 6 0 11 5 11 10 0 6 -2 10 -4 10 -3 0
-8 -4 -11 -10z"/>
<path d="M176 881 c-3 -5 2 -15 12 -22 15 -13 16 -12 4 3 -10 13 -10 17 0 21
9 4 9 6 1 6 -6 1 -14 -3 -17 -8z"/>
<path d="M4783 651 c0 -11 5 -18 9 -15 4 3 5 11 1 19 -7 21 -12 19 -10 -4z"/>
<path d="M4645 591 c2 -12 1 -21 -3 -21 -4 0 -16 -13 -26 -28 -11 -15 -13 -22
-6 -15 7 6 18 9 25 7 26 -10 42 48 19 67 -10 8 -12 6 -9 -10z"/>
<path d="M4523 515 c0 -8 4 -12 9 -9 5 3 6 10 3 15 -9 13 -12 11 -12 -6z"/>
<path d="M753 335 c0 -8 4 -12 9 -9 5 3 6 10 3 15 -9 13 -12 11 -12 -6z"/>
<path d="M496 328 c3 -5 10 -6 15 -3 13 9 11 12 -6 12 -8 0 -12 -4 -9 -9z"/>
<path d="M826 208 c3 -5 10 -6 15 -3 13 9 11 12 -6 12 -8 0 -12 -4 -9 -9z"/>
</g>
</svg>
